<svg width="45" height="44" viewBox="0 0 45 44" fill="none" xmlns="http://www.w3.org/2000/svg">
<g id="iPhone 16 - 7">
<g id="Group 46">
<g id="Layer_1" clip-path="url(#clip0_0_1)">
<path id="Vector" d="M41.3882 18.1272L34.3286 26.4889L34.3111 18.1306L30.7133 18.1214L23.2576 26.897L23.2436 18.126L19.6271 18.134L10.9702 25.229L10.0573 16.8328L2.21725 16.8362L0.0468762 43.4551L0 44L13.0105 43.9965V44L45 43.9977V18.134L41.3882 18.1272ZM12.1714 36.2635L11.8878 33.669L18.5946 33.6713L18.597 36.2589L12.1714 36.2635ZM26.5167 36.2612H21.2361V33.669H26.5167V36.2612ZM34.4376 36.2635H29.1582V33.669H34.4376V36.2635ZM42.3632 36.2612H37.0791V33.669H42.3632V36.2612Z" fill="black"/>
<path id="Vector_2" d="M26.096 13.1211C23.5424 15.734 19.5568 16.2927 16.3704 14.4752C15.2442 15.3247 12.6531 15.7524 11.0663 15.3328L10.2776 9.42413L4.73686 9.43217C4.7017 5.34324 10.3058 1.09107 14.4391 2.59008C15.7411 1.17729 17.4368 0.325473 19.354 0.0380864L21.3392 0.0334882C22.6354 0.254201 23.8202 0.649645 24.8995 1.41179C27.5574 -0.555079 31.1915 -0.457368 33.745 1.66469C36.4885 0.153041 39.8729 0.83817 41.8195 3.18899C43.7719 5.54786 43.7027 8.96891 41.6402 11.2611C39.6057 13.5223 36.1533 14.0936 33.4368 12.3968C31.3297 13.9234 28.5758 14.2947 26.0948 13.1245L26.096 13.1211Z" fill="black"/>
<path id="Vector_3" d="M9.77485 14.2417L2.43286 14.2451L2.74342 10.3597L9.35179 10.3585L9.77485 14.2417Z" fill="black"/>
</g>
</g>
</g>
<defs>
<clipPath id="clip0_0_1">
<rect width="45" height="44" fill="white"/>
</clipPath>
</defs>
</svg>
