<svg width="29" height="32" viewBox="0 0 29 32" fill="none" xmlns="http://www.w3.org/2000/svg">
<g id="iPhone 16 - 8">
<g id="Frame 25">
<g id="Group 47">
<g id="Layer_1" clip-path="url(#clip0_0_1)">
<path id="Vector" d="M14.6137 0C15.1867 0.163714 15.5081 0.639897 15.5072 1.24738L15.503 4.5574L18.2724 2.50474C18.7917 2.11997 19.4981 2.24546 19.8714 2.73494C20.2448 3.22442 20.1693 3.95407 19.6239 4.34632L15.5022 7.41201L15.5055 13.9381L21.1567 10.5807L21.676 5.5563C21.744 4.90145 22.2415 4.44105 22.8958 4.47346C23.4823 4.50338 24.041 5.01696 23.9747 5.67016L23.6257 9.10566L26.6493 7.31311C27.1971 6.98818 27.8884 7.23583 28.1796 7.72281C28.5076 8.27213 28.3373 8.96106 27.7752 9.2968L24.8238 11.0594L27.9614 12.3317C28.5512 12.5711 28.8356 13.1827 28.6468 13.752C28.448 14.352 27.8045 14.6802 27.1728 14.4758L22.3405 12.5295L16.592 15.9559L22.3396 19.3822L27.2173 17.4185C27.8289 17.2398 28.427 17.5382 28.6468 18.1058C28.849 18.6277 28.625 19.3025 28.0462 19.5385L24.8229 20.8532L27.7752 22.6141C28.3541 22.9599 28.5118 23.6787 28.1577 24.2205C27.7987 24.7698 27.1049 24.8787 26.526 24.5338L23.6266 22.8044L23.9756 26.2399C24.0393 26.8707 23.52 27.3735 22.9504 27.4325C22.3807 27.4915 21.7599 27.0909 21.6945 26.4635L21.1567 21.331L15.5072 17.9736L15.503 24.5006L19.6256 27.5663C20.1542 27.9469 20.2515 28.6375 19.9 29.1403C19.5392 29.6563 18.8085 29.8043 18.2741 29.407L15.5064 27.3552V30.7275C15.5064 31.3109 15.1448 31.7522 14.6012 31.9109H14.1121C13.5281 31.7497 13.2001 31.2777 13.201 30.6627L13.2068 27.356L10.4073 29.4253C9.88626 29.8109 9.1438 29.6364 8.79647 29.1236C8.44914 28.6109 8.5624 27.9411 9.09514 27.5563L13.2085 24.4981L13.201 17.9745L7.55399 21.3327L7.01202 26.4851C6.94407 27.1308 6.30311 27.5181 5.75108 27.4499C5.09838 27.3693 4.66968 26.8225 4.73596 26.1751L5.08076 22.8061L2.02699 24.6128C1.49342 24.9286 0.804639 24.6568 0.514363 24.164C0.224087 23.6712 0.3407 22.974 0.8684 22.6582L3.89029 20.8482L0.761014 19.5825C0.147742 19.3349 -0.152602 18.7033 0.0814651 18.1C0.315532 17.4966 0.967395 17.2058 1.58822 17.4559L6.36855 19.3797L12.1254 15.9551L6.36855 12.5304L1.67882 14.4176C1.03871 14.721 0.318888 14.4251 0.0814651 13.8101C-0.155958 13.1952 0.17375 12.5594 0.805478 12.3043L3.88778 11.0627L0.834003 9.22449C0.307142 8.90704 0.243382 8.16326 0.536176 7.70952C0.858332 7.21006 1.5362 6.99981 2.06977 7.31644L5.0816 9.104L4.73679 5.73498C4.66884 5.06932 5.1311 4.51086 5.79219 4.45518C6.38533 4.40532 6.95498 4.83164 7.02209 5.47985L7.55399 10.5791L13.2043 13.9373L13.206 7.40702L9.05906 4.32803C8.54227 3.92498 8.46592 3.23024 8.8208 2.75239C9.20252 2.23715 9.92402 2.12246 10.4458 2.50973L13.2043 4.55491L13.2077 1.12107C13.2077 0.554301 13.6171 0.150417 14.1272 0H14.6163L14.6137 0Z" fill="black"/>
</g>
</g>
</g>
</g>
<defs>
<clipPath id="clip0_0_1">
<rect width="28.7206" height="31.9118" fill="white"/>
</clipPath>
</defs>
</svg>
