<svg width="30" height="31" viewBox="0 0 30 31" fill="none" xmlns="http://www.w3.org/2000/svg">
<g id="iPhone 16 - 8">
<g id="Frame 25">
<g id="Group 47">
<path id="Vector" d="M12.0954 0L12.4916 0.221999L16.4713 5.5298C13.3871 5.973 11.0646 8.47796 10.9495 11.5642L10.943 13.6259C10.9414 14.1321 11.3579 14.5139 11.8239 14.5285C12.319 14.5438 12.759 14.1515 12.7615 13.6259L12.7704 11.6844C12.7817 9.21984 14.8579 7.2727 17.323 7.26221C18.8417 7.25575 20.0475 6.04969 20.0532 4.54413L20.058 3.12494L19.7201 3.41879C19.3498 3.74008 18.8068 3.68358 18.4867 3.34775C18.1788 3.02484 18.1245 2.46379 18.4746 2.11263L20.383 0.203432L20.7258 0H21.212L21.5839 0.230879L23.4632 2.11263C23.8133 2.46298 23.7582 3.02565 23.451 3.34775C23.1439 3.66985 22.5872 3.74089 22.2177 3.41879L21.883 3.12575L21.8805 4.60629C21.8416 6.46947 20.699 8.0937 18.9203 8.77826L20.7825 11.2509C18.2922 12.0945 16.5564 14.325 16.4146 16.947L16.4122 19.0766C16.4122 19.5795 16.8344 19.9638 17.2939 19.9783C17.793 19.9937 18.2298 19.6005 18.2331 19.0766L18.2452 17.0633C18.3546 14.7311 20.2971 12.7662 22.6642 12.7339C24.2395 12.7121 25.5207 11.5956 25.5248 9.9819L25.5288 8.57564L25.1917 8.86868C24.8214 9.18997 24.2784 9.13346 23.9583 8.79844C23.6382 8.46342 23.5953 7.91367 23.947 7.56413L25.8287 5.69045C26.1528 5.36754 26.7282 5.36754 27.0523 5.69045L28.934 7.56413C29.2849 7.91367 29.2322 8.47392 28.9218 8.79844C28.6115 9.12296 28.058 9.19158 27.6884 8.86868L27.3538 8.57564L27.3505 9.98997C27.3449 12.5264 25.2736 14.5519 22.7428 14.5317C24.947 19.6151 23.2233 25.4032 18.8311 28.688C17.1002 29.9586 15.1002 30.7497 12.9527 30.9435L12.6432 31L11.0686 30.983C8.87009 30.8079 6.75503 30.0611 4.9471 28.738C-0.412675 24.8163 -1.63147 17.3127 2.34744 12.0186L11.2112 0.226036L11.6099 0H12.0954Z" fill="black"/>
</g>
</g>
</g>
</svg>
