<svg width="31" height="31" viewBox="0 0 31 31" fill="none" xmlns="http://www.w3.org/2000/svg">
<g id="iPhone 16 - 8">
<g id="Frame 25">
<g id="Group 47">
<path id="Vector" d="M31 15.5005C31 24.0607 24.0607 31.001 15.4995 31.001C6.9383 31.001 0 24.0607 0 15.5005C0 6.94024 6.93927 0 15.5005 0C24.0617 0 31.001 6.93927 31.001 15.5005H31ZM18.2241 3.40763C13.2565 2.2711 8.1349 4.33777 5.28826 8.47595C2.44163 12.6141 2.37478 18.3268 5.31927 22.5667C8.26376 26.8066 13.2778 28.7221 18.2241 27.5904C14.4948 24.5975 12.3884 20.1512 12.399 15.4646C12.4097 10.8071 14.5122 6.38409 18.225 3.4086L18.2241 3.40763Z" fill="black"/>
</g>
</g>
</g>
</svg>
