<svg width="88" height="104" viewBox="0 0 88 104" fill="none" xmlns="http://www.w3.org/2000/svg">
<path d="M54.8392 0.274365L55.4092 0.294323L57.6592 0.054333C70.9892 -0.765667 83.0092 7.77433 86.6892 20.3643L87.6992 25.1644C88.5692 32.0944 86.9192 39.1243 83.3192 45.2343C79.6392 51.4743 74.2092 55.9243 67.6092 58.8143C62.7792 60.9243 59.6292 65.8644 59.5892 71.0144C59.5592 74.6244 59.3592 77.8443 58.3092 81.2543C55.1992 91.4243 47.2792 99.4843 37.0592 102.624L36.1492 102.984L32.8192 103.684H32.0992C18.0292 105.514 4.96922 96.9043 1.15922 83.5543L0.249213 78.8944C-0.640787 71.9644 0.879227 65.1043 4.38923 59.0643C8.04923 52.7843 13.4192 48.2243 20.0792 45.3143C24.8092 43.2543 28.2792 38.3744 28.2292 33.2044C28.1692 26.9344 29.4192 21.1443 32.6292 15.7443C36.6492 8.96433 42.8092 3.77435 50.4192 1.38435L51.5192 0.984326L54.8292 0.264355L54.8392 0.274365ZM55.2892 71.8743C55.0792 64.5243 59.3092 58.0943 65.9192 55.1143C72.1292 52.7543 77.0292 48.2644 80.2192 42.4544C84.8792 33.9744 84.9292 23.5443 79.5892 15.1743C79.5092 23.9143 75.9692 32.0243 71.3092 39.1943C70.6292 40.2143 69.3592 40.3644 68.4792 39.6544C67.5992 38.9444 67.6192 37.8844 68.2592 36.8944C70.9692 32.7044 73.1392 28.2844 74.5092 23.4744C75.7692 19.0444 76.5392 13.0743 73.9992 9.31434L41.9592 58.4544C41.3092 59.4444 40.2392 59.6743 39.3392 59.1243C38.4992 58.6143 38.0492 57.4843 38.6992 56.4843L70.8092 7.23433C65.6092 6.55433 60.1492 10.5343 56.3292 14.0043C52.5092 17.4743 49.1692 21.8644 46.3892 26.4744C43.7792 30.7944 42.1892 35.2844 40.8892 40.1343C39.1292 46.6744 34.7892 52.0244 29.5692 56.1644C25.5492 59.3444 22.6292 63.3344 19.6292 67.3244C19.0192 68.1444 17.7792 68.1944 17.0592 67.7144C16.5092 67.3444 15.7592 66.3243 16.2792 65.4843C19.1692 60.8543 22.6892 56.6744 26.8792 53.1544C28.2792 51.9744 29.6292 50.9743 30.8692 49.6743C34.4992 45.8943 36.6492 41.3044 37.9792 36.2744C39.2592 31.4144 41.4892 27.0244 44.1092 22.7644C46.7292 18.5044 49.6192 14.9544 53.1292 11.5844C56.2792 8.55436 59.7592 6.24436 63.8292 4.39436C52.6192 2.45436 42.0292 7.88437 36.1992 17.2844C33.2992 21.9544 31.9492 27.1444 32.0892 32.6343C32.2792 39.8843 27.9992 46.5243 21.2692 49.3043C15.7592 51.5843 11.2692 55.2843 8.09922 60.3543C4.92922 65.4243 3.4592 70.7044 3.7692 76.4744C4.0292 81.2944 5.43922 85.7943 8.22922 89.8643C8.14922 86.5843 8.4692 83.2644 9.5192 80.0744C9.8192 79.1544 10.9792 78.9743 11.6392 79.1944C12.5092 79.4743 13.2092 80.2544 12.9692 81.2044C11.9792 85.1944 11.2692 89.5244 12.6392 93.3944C13.5492 95.9544 15.9292 97.4143 18.6392 97.1843C21.0392 96.9743 23.2392 96.0843 25.3292 94.8143C33.4492 89.8743 39.9692 81.2444 43.8692 72.6544C44.9292 70.3244 45.6492 68.0444 46.2592 65.5844C47.7792 59.4444 51.9792 52.7843 57.0692 49.0543C57.8792 48.4643 59.0492 48.7744 59.5292 49.4544C60.0592 50.2144 60.1092 51.2944 59.3592 51.9644C57.6392 53.4844 55.9792 54.9744 54.5692 56.8444C52.6592 59.3744 51.0492 62.1844 50.2092 65.2744C48.9992 69.7244 47.5392 73.8444 45.3392 77.9044C42.2792 83.5444 38.5292 88.6344 33.8292 93.0144C31.8292 94.8744 29.8092 96.4944 27.4692 97.8344L23.8992 99.8944C40.6692 102.544 55.7992 88.9244 55.3092 71.8844L55.2892 71.8743Z" fill="#DE0405"/>
<path d="M27.2593 80.9943C26.5593 82.0643 25.4892 82.3743 24.5492 81.8043C23.6092 81.2343 23.2993 80.0743 23.9493 79.0943L33.1293 65.0343C33.7593 64.0743 34.9893 64.0043 35.7893 64.5743C36.5893 65.1443 36.8692 66.2643 36.2392 67.2243L27.2593 80.9943Z" fill="#DE0405"/>
</svg>
