<svg width="88" height="116" viewBox="0 0 88 116" fill="none" xmlns="http://www.w3.org/2000/svg">
<path d="M87.9 42.34L87.94 105.71C87.94 110.54 84.3 115.05 79.24 115.05H8.77004C4.21004 115.05 1.75706e-05 111.06 1.75706e-05 106.4V8.97003C-0.00998243 4.25003 4.25003 0.0699976 8.89003 0.0599976L48.2 0C49.68 0 50.59 0.560027 51.56 1.59003L77.44 29.31L86.72 39.27C87.4501 40.06 87.89 41.13 87.89 42.35L87.9 42.34ZM83.62 106.05V43.17H56.81C51.65 42.87 47.66 38.68 47.59 33.51V4.33002H9.20003C6.33003 4.33002 4.29 6.73002 4.29 9.52002V42.79L4.33003 106.37C4.33003 108.84 6.56 110.74 8.92 110.74H78.97C81.53 110.74 83.62 108.69 83.62 106.05ZM80.43 38.83L74.27 32.18L51.89 8.22998L51.91 33.52C51.91 36.28 54.12 38.79 56.96 38.79L80.42 38.83H80.43Z" fill="#43AA49"/>
<path d="M66.3701 85.72C64.7201 88.3 62.7201 90.39 60.1501 91.94C56.2801 94.27 51.7101 94.36 47.2401 93.64L47.1901 96.87C47.1701 98.2 46.3901 99.25 45.0701 99.28C43.8501 99.31 42.8101 98.22 42.8801 96.87C42.9501 95.52 42.8801 94.22 42.2501 92.96C36.0301 92.8 29.8501 91.41 25.3401 86.89C22.9801 84.52 21.3302 81.69 20.2202 78.52C17.6902 71.29 17.5301 62.08 18.4401 54.49C18.6001 53.2 20.1101 52.64 21.2401 52.9C28.4501 54.58 36.2901 57.67 41.3001 63.21C43.5001 65.86 45.0301 68.79 45.9001 72.12L46.7701 76.92C49.5301 73.06 53.7301 70.76 58.2601 69.52C62.0101 68.49 65.8101 67.99 69.7101 67.85C70.4301 67.82 71.1301 68.1 71.5401 68.57C71.9701 69.07 72.2801 69.86 72.1001 70.56L70.4501 76.8C69.6101 79.99 68.1701 82.88 66.3601 85.71L66.3701 85.72ZM29.3101 72.64C28.5401 71.46 28.7301 70.19 29.8001 69.49C30.8701 68.79 32.1201 69.05 32.8501 70.16L42.3401 84.61C43.8801 68.44 37.2901 62.04 22.4801 57.65C22.1301 63.28 22.2202 68.91 23.5302 74.39C25.6502 83.12 30.6301 87.66 39.6601 88.45L29.3101 72.64ZM57.8901 83.01L55.4702 85.3L52.6001 88.03L50.9301 89.62C57.4401 90.28 61.5801 86.34 64.2501 80.72C65.5201 78.05 66.4602 75.35 67.2202 72.37C62.6602 72.82 57.7601 73.64 53.8301 76.07C50.0101 78.51 48.2201 82.15 47.7001 86.61L50.2601 84.29L54.9501 79.86C55.8901 78.97 57.2102 78.98 58.0302 79.85C58.9002 80.77 58.8601 82.08 57.8901 83V83.01Z" fill="#43AA49"/>
</svg>
