<svg width="118" height="80" viewBox="0 0 118 80" fill="none" xmlns="http://www.w3.org/2000/svg">
<path d="M58.95 77.3101C90.4081 77.3101 115.91 60.4491 115.91 39.65C115.91 18.851 90.4081 1.98999 58.95 1.98999C27.4919 1.98999 1.98999 18.851 1.98999 39.65C1.98999 60.4491 27.4919 77.3101 58.95 77.3101Z" stroke="#44157A" stroke-width="3.98" stroke-miterlimit="10"/>
<path d="M23.0577 51.2188C21.3681 51.2188 19.9857 49.8748 19.9857 48.1468C19.9857 46.4956 21.3681 45.1132 23.0577 45.1132C24.7473 45.1132 26.1297 46.4956 26.1297 48.1468C26.1297 49.8748 24.7473 51.2188 23.0577 51.2188ZM36.5901 37.9708C36.5901 35.59 35.4765 34.3612 33.2877 34.3612H25.9149V30.0604H34.5933C39.2013 30.0604 41.7357 32.8252 41.7357 37.894V50.6812H36.5901V37.9708ZM58.2807 51.2188C51.1767 51.2188 46.2999 46.726 46.2999 39.3148V30.0604H51.1767V38.6236C51.1767 39.43 51.2151 40.1596 51.3687 40.8508C54.7479 40.2364 56.2071 38.47 56.2071 34.7452V30.0604H60.9687V34.9756C60.9687 40.198 58.4727 42.9244 52.6743 44.1148C53.9031 45.958 55.9383 46.9948 58.3959 46.9948C62.9655 46.9948 65.9991 43.5388 65.9991 38.2396V30.0604H70.8759V38.7004C70.8759 46.15 65.8071 51.2188 58.2807 51.2188ZM74.9007 50.6812V46.4572H79.1247C83.8863 46.4572 85.9983 44.5756 85.9983 40.2748C85.9983 36.2428 84.1551 34.3228 80.3535 34.3228H75.0927V30.0604H81.5439C87.8415 30.0604 91.1439 33.4396 91.1439 39.8908C91.1439 46.9564 87.1887 50.6812 79.7391 50.6812H74.9007Z" fill="#44157A"/>
</svg>
