<svg width="101" height="72" viewBox="0 0 101 72" fill="none" xmlns="http://www.w3.org/2000/svg">
<path d="M100.346 7.00975L100.316 9.34972C99.926 11.2597 99.206 13.0298 97.976 14.6498C96.246 16.8398 94.146 18.4597 91.576 19.6597L68.366 30.4897L56.496 65.6398C55.856 67.5298 54.856 69.0298 53.556 70.3898C50.906 72.5598 47.746 72.1998 45.056 70.1398C44.716 69.7398 44.416 69.1597 44.476 68.5497L47.156 40.4297L17.346 54.3397C16.386 54.7897 15.496 54.2897 15.026 53.4997L11.056 44.9597C10.656 44.0897 11.186 43.0997 11.936 42.7297L14.836 41.3297L1.13603 35.6597C0.0460318 35.2097 -0.293963 34.0197 0.266037 32.9997L4.81602 24.8197C5.19602 24.1297 5.98604 23.8397 6.76604 23.9597L25.426 28.6997L36.526 23.4397L17.116 10.0897C15.446 8.52971 16.886 4.88967 18.866 3.16967C19.966 2.20967 21.426 1.95975 22.906 1.87975C24.446 2.04975 25.836 2.25971 27.316 2.83971L56.356 14.1897L83.416 1.50975C86.336 0.139753 89.336 -0.220261 92.496 0.119739C96.376 0.509739 99.576 3.30976 100.336 7.01976L100.346 7.00975ZM51.546 31.2598L48.066 67.9097C49.216 68.7097 50.696 68.5396 51.566 67.4097C52.266 66.4996 52.856 65.5297 53.246 64.3497L67.716 21.2897C68.076 20.2197 69.086 19.7897 69.966 20.0697C70.846 20.3497 71.436 21.3197 71.116 22.2897L69.946 25.9097L90.266 16.3697C93.956 14.6397 97.816 10.4097 96.566 6.84972C95.996 5.21972 94.416 4.13977 92.796 3.77977C89.786 3.11977 86.976 3.72977 84.216 5.02977L26.676 31.9097C26.096 32.1797 25.606 32.2298 25.026 32.1398L7.22603 27.7197L4.16603 33.1297L19.696 39.5697C20.416 39.8997 20.906 40.4997 20.906 41.2097C20.906 41.9197 20.446 42.5798 19.776 42.8898L14.916 45.1597L17.386 50.4197L47.466 36.4097L48.046 30.7897C48.156 29.7497 49.076 29.0797 49.986 29.2197C50.896 29.3597 51.636 30.0397 51.516 31.2497L51.546 31.2598ZM51.926 16.2297L25.986 6.10973C24.916 5.68973 23.796 5.52971 22.716 5.46971C21.216 5.37971 20.056 6.44974 20.026 7.86974L40.246 21.7197L51.926 16.2397V16.2297Z" fill="#29256A"/>
</svg>
