<svg width="83" height="97" viewBox="0 0 83 97" fill="none" xmlns="http://www.w3.org/2000/svg">
<path d="M19.785 1.85501H4.82498C3.1847 1.85501 1.85498 3.1847 1.85498 4.82498V91.195C1.85498 92.8353 3.1847 94.1651 4.82498 94.1651H19.785C21.4253 94.1651 22.755 92.8353 22.755 91.195V4.82498C22.755 3.1847 21.4253 1.85501 19.785 1.85501Z" stroke="#F5851F" stroke-width="3.71" stroke-miterlimit="10"/>
<path d="M77.9949 12.9151H63.0349C61.3947 12.9151 60.0649 14.2448 60.0649 15.885V91.195C60.0649 92.8353 61.3947 94.1651 63.0349 94.1651H77.9949C79.6352 94.1651 80.9649 92.8353 80.9649 91.195V15.885C80.9649 14.2448 79.6352 12.9151 77.9949 12.9151Z" stroke="#F5851F" stroke-width="3.71" stroke-miterlimit="10"/>
<path d="M48.925 37.8051H33.965C32.3247 37.8051 30.995 39.1348 30.995 40.7751V91.195C30.995 92.8353 32.3247 94.1651 33.965 94.1651H48.925C50.5653 94.1651 51.895 92.8353 51.895 91.195V40.7751C51.895 39.1348 50.5653 37.8051 48.925 37.8051Z" stroke="#F5851F" stroke-width="3.71" stroke-miterlimit="10"/>
</svg>
