<svg width="104" height="100" viewBox="0 0 104 100" fill="none" xmlns="http://www.w3.org/2000/svg">
<path d="M103.09 52.48V55.25C102.85 57.09 102.29 58.8301 101.3 60.4501L97.53 66.5801L85.27 87.5301C83.29 90.9201 79.64 92.7901 75.76 92.8001H63.61V97.9601C63.61 98.6401 62.99 99.4001 62.49 99.5601C61.74 99.8001 60.96 99.5901 60.46 98.9401L43.32 76.6501C42.83 76.0201 42.88 75.0501 43.41 74.4701L60.45 55.7201C61.01 55.1101 61.69 54.86 62.49 55.11C63.03 55.28 63.53 55.9901 63.61 56.7001V63.5801L79.58 63.5701L72.46 50.7101C71.97 49.8301 72.25 48.8901 73.08 48.3201L93.65 36.3201C94.47 35.8401 95.64 36.09 96.08 36.98L101.72 48.23C102.41 49.61 102.83 51.0201 103.09 52.4701V52.48ZM95.33 63.5701L98.4 58.5801C100.06 55.8601 100.1 52.7001 98.68 49.88L93.82 40.2101L76.25 50.48L83.55 63.5901L95.34 63.5701H95.33ZM75.86 89.37C78.81 89.33 81.14 87.8401 82.55 85.4201L93.27 67.0201H61.88C60.9 67.0201 60.24 66.22 60.21 65.36L60.12 61.2201L46.93 75.7101L60.11 92.8101L60.26 90.7001C60.31 90.0101 61.18 89.37 61.9 89.37H75.87H75.86Z" fill="#7E4836"/>
<path d="M0 31.2901V30.2801C0.56 29.4601 1.23001 29.2201 2.29001 29.1501L28.99 27.49C29.81 27.44 30.47 27.7901 30.81 28.5301L41.04 50.6801C41.38 51.4101 41.25 52.1801 40.81 52.6801C40.41 53.1201 39.58 53.4001 38.98 53.1701L31.84 50.4201L23.28 65.2801L35.87 65.3101C36.94 65.3101 37.74 65.9101 37.84 67.0201V91.0801C37.84 92.0601 37.01 92.8101 36.1 92.8101L29.22 92.7901C24.8 92.7801 20.71 90.4001 18.49 86.5501L3.67001 60.9201C1.54001 57.2301 1.72001 52.8601 3.57001 49.1601L9.33002 37.6401L0.650024 32.2701L0.0200195 31.2801L0 31.2901ZM14.73 73.1901L29.51 47.5601C29.94 46.7601 30.73 46.4401 31.58 46.6701L36.15 48.36L28.15 30.99L7.30002 32.3001L12.44 35.5601C13.14 36.0501 13.49 36.9501 13.08 37.7601L6.51001 50.9201C5.28001 53.5401 5.1 56.5901 6.59 59.1701L14.71 73.1901H14.73ZM29.28 89.3801L34.38 89.36V68.74H21.59L16.72 76.6901L21.27 84.5601C22.88 87.4901 25.83 89.29 29.29 89.37L29.28 89.3801Z" fill="#7E4836"/>
<path d="M54.92 37.8C54.06 37.7001 53.51 37.1001 53.38 36.6001C53.21 35.9601 53.39 35.0601 53.98 34.7101L61.33 30.28L53.43 15.3401L46.2 28.3101C45.68 29.2501 44.57 29.44 43.69 28.89L24.89 16.92C24 16.35 23.9 15.25 24.42 14.41L29.81 5.69006C32.01 2.13006 35.86 0 40.11 0H68.89C73.14 0 76.73 2.33002 78.8 5.90002L84.65 15.98L92.11 12.1801C92.76 11.8501 93.68 12.16 94.04 12.54C94.57 13.11 94.68 13.88 94.32 14.63L82.25 39.5601C81.9 40.2801 81.26 40.8001 80.43 40.7101L54.94 37.8101L54.92 37.8ZM51.36 11.9501L47.1 3.43005H40.09C36.96 3.47005 34.22 5.03005 32.59 7.68005L28.14 14.91L44.08 25.0601L51.36 11.9501ZM88.97 17.7201L84.87 19.6801C84.09 20.1501 82.99 19.9401 82.51 19.1001L75.91 7.79004C74.47 5.10004 71.81 3.43005 68.69 3.43005H51.02L65.08 30.05C65.54 30.98 65.24 31.9301 64.39 32.4401L60.32 34.9501L79.58 37.16L88.96 17.7201H88.97Z" fill="#7E4836"/>
</svg>
