<svg width="66" height="114" viewBox="0 0 66 114" fill="none" xmlns="http://www.w3.org/2000/svg">
<path d="M29.2096 0.0100098C36.6396 0.91001 42.4296 7.08003 42.4296 14.78V62.3301C57.0896 71.9301 59.4596 92 47.5796 104.55C41.9396 110.51 33.7296 113.74 25.4496 113.04C13.7196 112.06 3.9996 103.88 0.989603 92.87C-2.2104 81.15 2.51959 68.83 12.7296 62.34L12.7496 14.5701C12.7496 6.94007 18.6396 0.88 25.9396 0H29.2096V0.0100098ZM39.3196 65.3301C38.7396 64.9901 38.3096 64.2601 38.3096 63.5801L38.2796 14.79C38.2796 8.77004 33.3496 4.16996 27.5896 4.20996C21.8896 4.24996 17.0696 8.85004 17.0696 14.79L17.0496 63.38C17.0496 64.3 16.5496 65.0401 15.8996 65.4301C3.23958 72.9201 0.509596 89.74 9.9196 100.76C19.3196 111.77 36.3896 111.65 45.6396 100.5C54.8096 89.45 51.9796 72.72 39.3196 65.35V65.3301Z" fill="#2FB0E9"/>
<path d="M62.7496 56.67C64.1196 56.67 65.0196 57.49 65.0996 58.65C65.1796 59.73 64.3296 60.9 63.0096 60.9H49.8596C48.5996 60.9 47.7596 59.9 47.7396 58.86C47.7196 57.82 48.5496 56.6901 49.7996 56.6901L62.7396 56.67H62.7496Z" fill="#2FB0E9"/>
<path d="M62.7496 14.4501C64.1096 14.4501 65.0095 15.27 65.0995 16.42C65.1895 17.57 64.3295 18.6801 63.0195 18.6801H49.8696C48.6196 18.6801 47.7796 17.67 47.7496 16.63C47.7196 15.59 48.5596 14.48 49.8096 14.47L62.7496 14.4501Z" fill="#2FB0E9"/>
<path d="M63.1796 39.76L49.8196 39.78C48.5796 39.78 47.7296 38.7 47.7496 37.65C47.7696 36.6 48.5996 35.5701 49.8396 35.5701H63.0496C64.1996 35.5701 64.9996 36.5201 65.0996 37.4401C65.1996 38.4101 64.5096 39.76 63.1896 39.76H63.1796Z" fill="#2FB0E9"/>
<path d="M60.3295 29.2L52.6795 29.2299C51.4095 29.2299 50.4695 28.4299 50.3895 27.2499C50.3195 26.1299 51.1795 25 52.5195 25.01L60.3295 25.03C61.4795 25.03 62.2695 26.11 62.2995 27.07C62.3295 28.03 61.5995 29.2099 60.3295 29.2099V29.2Z" fill="#2FB0E9"/>
<path d="M60.2895 50.3301H52.4895C51.2495 50.3401 50.3995 49.3 50.3895 48.25C50.3795 47.2 51.2395 46.13 52.4695 46.13H60.2095C61.3695 46.13 62.2195 47.06 62.3095 48.11C62.3895 49.07 61.5995 50.3301 60.2895 50.3301Z" fill="#2FB0E9"/>
<path d="M28.6796 99.39C20.6796 99.93 13.9896 94.11 13.1296 86.48C12.2696 78.85 17.5895 71.58 25.5295 70.42V38.49C25.5295 37.2 26.4995 36.32 27.6095 36.3C28.7195 36.28 29.7596 37.1101 29.7596 38.4401V70.41C37.2296 71.51 42.5496 77.99 42.2596 85.4C41.9796 92.72 36.2895 98.85 28.6695 99.39H28.6796ZM37.9896 84.8201C37.9896 79.1101 33.3595 74.49 27.6595 74.49C21.9595 74.49 17.3295 79.1201 17.3295 84.8201C17.3295 90.5201 21.9595 95.15 27.6595 95.15C33.3595 95.15 37.9896 90.5201 37.9896 84.8201Z" fill="#2FB0E9"/>
</svg>
