<svg width="94" height="84" viewBox="0 0 94 84" fill="none" xmlns="http://www.w3.org/2000/svg">
<path d="M93.1 71.28L93.12 73.9901C92.31 79.4901 87.72 83.5801 82 83.5801H11.3C5.50999 83.5901 0.81 79.6201 0 73.9901L0.0199585 71.28C0.349959 69.67 0.839971 68.2601 1.71997 66.7401L36.82 5.91004C38.94 2.24004 42.46 -0.0198683 46.65 0.000131658C50.84 0.0201317 54.26 2.35003 56.38 6.02003L91.55 66.9701C92.38 68.4101 92.77 69.77 93.12 71.27L93.1 71.28ZM82.15 78.1201C84.25 78.1201 85.95 76.97 86.87 75.41C87.95 73.57 87.88 71.5501 86.81 69.7101L51.43 8.42005C50.37 6.58005 48.67 5.50012 46.62 5.49012C44.73 5.49012 42.85 6.41007 41.82 8.19007L6.29999 69.7101C5.23999 71.5501 5.15999 73.56 6.23999 75.41C7.14999 76.96 8.85996 78.1201 10.96 78.1201H82.14H82.15Z" fill="#DE0405"/>
<path d="M49.2901 27.2501H43.8301V54.53H49.2901V27.2501Z" fill="#DE0405"/>
<path d="M46.5599 67.27C48.5703 67.27 50.2 65.6404 50.2 63.6301C50.2 61.6198 48.5703 59.9901 46.5599 59.9901C44.5496 59.9901 42.9199 61.6198 42.9199 63.6301C42.9199 65.6404 44.5496 67.27 46.5599 67.27Z" fill="#DE0405"/>
</svg>
