<svg width="100%" height="100%" viewBox="0 0 23.0004 23.0008" fill="none" xmlns="http://www.w3.org/2000/svg">
<g id="Group 23">
<path id="Vector" d="M12.9927 18.9723C12.9927 19.8545 12.3252 20.5696 11.5018 20.5696C10.6784 20.5696 10.011 19.8545 10.011 18.9723C10.011 18.0902 10.6784 17.3751 11.5018 17.3751C12.3252 17.3751 12.9927 18.0902 12.9927 18.9723ZM12.3195 18.9723C12.3195 18.489 11.9536 18.097 11.5025 18.097C11.0513 18.097 10.6855 18.489 10.6855 18.9723C10.6855 19.4557 11.0513 19.8476 11.5025 19.8476C11.9536 19.8476 12.3195 19.4557 12.3195 18.9723Z" fill="#A51D1E" fill-opacity="0.2"/>
<path id="Vector_2" d="M21.0954 23.0001L1.88322 22.9987C1.23631 22.9987 0.671542 22.6247 0.319207 22.0973C-0.0992317 21.4709 -0.0876797 20.718 0.245403 20.0538L9.79248 1.01637C10.1268 0.348712 10.8283 0.00697806 11.4791 0.000102123C12.1298 -0.00677381 12.8692 0.333585 13.2119 1.01637L22.7596 20.0538C23.1408 20.8136 23.0766 21.6909 22.5157 22.3242C22.1499 22.7368 21.6891 22.9843 21.0961 23.0008L21.0954 23.0001ZM21.0929 22.2781C21.4998 22.2575 21.7757 22.1035 22.0158 21.836C22.354 21.4599 22.4291 20.9284 22.1916 20.4539L12.7004 1.5135C12.4469 1.00743 11.9899 0.717262 11.481 0.724138C10.965 0.731702 10.5401 1.04181 10.2866 1.54719L0.796047 20.487C0.589395 20.8995 0.645871 21.3746 0.898731 21.7212C1.15159 22.0677 1.49687 22.2774 1.93328 22.2774H21.0922L21.0929 22.2781Z" fill="#A51D1E" fill-opacity="0.2"/>
<path id="Vector_3" d="M12.7065 15.0304C12.6917 15.7902 12.1661 16.3251 11.525 16.3368C10.8627 16.3492 10.3152 15.7991 10.2998 15.0544L10.1156 5.88194C10.0996 5.07127 10.7953 4.49506 11.4807 4.48269C12.1481 4.47031 12.899 5.02176 12.8836 5.83381L12.7071 15.0304H12.7065ZM12.0275 15.0751L12.22 5.88882C12.229 5.45288 11.8106 5.19778 11.48 5.20879C11.1688 5.21841 10.7754 5.47007 10.7844 5.8895L10.9788 15.1005C10.9859 15.4285 11.2708 15.6313 11.523 15.6183C11.7753 15.6052 12.0204 15.4216 12.0275 15.0758V15.0751Z" fill="#A51D1E" fill-opacity="0.2"/>
</g>
</svg>
