<svg preserveAspectRatio="none" width="100%" height="100%" overflow="visible" style="display: block;" viewBox="0 0 38 54" fill="none" xmlns="http://www.w3.org/2000/svg">
<g id="Isolation_Mode" clip-path="url(#clip0_0_30)">
<path id="Vector" d="M18.9944 -0.000224869C16.643 0.0932318 14.0576 1.65683 12.3976 3.50081C5.24629 11.3332 0.907236 21.4193 0.075435 32.059C-0.662744 41.225 3.90676 49.8841 12.7181 52.9682C20.0531 55.5921 28.958 53.1047 33.848 46.7497C45.8929 31.0454 28.868 -0.320134 18.9944 -0.000224869ZM19.1781 50.9876C18.303 50.9876 17.2876 50.7575 17.2408 49.8374C17.194 49.0538 17.7953 48.8237 18.764 48.8237C28.9616 48.777 31.6371 41.8684 32.6525 34.7765C32.7894 33.8095 32.9298 32.5191 33.8516 32.5658C34.7734 32.6126 35.0039 33.3962 34.8671 34.5931C33.7148 44.6361 29.2857 50.5778 19.1817 50.9912L19.1781 50.9876Z" fill="var(--fill-0, #EA2427)"/>
</g>
<defs>
<clipPath id="clip0_0_30">
<rect width="38" height="54" fill="white"/>
</clipPath>
</defs>
</svg>
