<svg preserveAspectRatio="none" width="100%" height="100%" overflow="visible" style="display: block;" viewBox="0 0 27 68" fill="none" xmlns="http://www.w3.org/2000/svg">
<g id="Isolation_Mode" clip-path="url(#clip0_0_17)">
<path id="Vector" d="M15.4167 17.626L13.3843 19.686L11.3772 17.6726C10.0463 16.3399 9.17118 14.6848 8.65403 12.8756C8.05371 10.4896 8.14774 8.00337 9.04099 5.6998C9.62323 4.19156 10.4767 2.8302 11.6231 1.7017L13.3517 0L14.2848 0.856225C15.6771 2.13161 16.8741 3.59686 17.5865 5.35588C18.704 8.1001 18.7438 11.0987 17.7637 13.8787C17.1923 15.2687 16.451 16.4975 15.4167 17.626Z" fill="var(--fill-0, #EA2427)"/>
<path id="Vector_2" d="M26.9566 14.5128C26.5986 20.2091 22.0745 24.6191 16.3208 24.8054L13.9701 24.8126L13.9846 22.2368C14.0208 16.4295 19.0801 11.8367 24.7578 11.8259H26.9819L26.9602 14.5164L26.9566 14.5128Z" fill="var(--fill-0, #EA2427)"/>
<path id="Vector_3" d="M16.5233 48.314L13.9882 48.3283V45.9854C13.981 43.689 14.7043 41.5036 16.1002 39.6801C17.2285 38.1754 18.6823 37.0362 20.4182 36.2874C21.7924 35.6856 23.2462 35.3309 24.7542 35.3273H27L26.9928 37.5127C26.9891 39.2359 26.5552 40.9161 25.7487 42.4387C24.6819 44.4162 23.1015 46.0319 21.1053 47.0744C19.6696 47.8232 18.1832 48.3033 16.5197 48.314H16.5233Z" fill="var(--fill-0, #EA2427)"/>
<path id="Vector_4" d="M12.9865 48.3212L10.1657 48.3068C9.11331 48.2997 8.13327 47.9952 7.15684 47.6297C5.06657 46.8487 3.31985 45.5053 2.02518 43.714C0.864318 42.1091 0.0216984 39.698 0.0108492 37.742L0 35.3273L1.89861 35.3202L3.73574 35.4599C7.19662 35.9543 10.1838 38.0393 11.8256 41.0988C12.4983 42.3491 12.8924 43.689 12.9865 45.1112V48.3212Z" fill="var(--fill-0, #EA2427)"/>
<path id="Vector_5" d="M16.5233 60.2008L13.9882 60.2152V57.8722C13.981 55.5758 14.7043 53.3904 16.1002 51.5669C17.2285 50.0623 18.6823 48.923 20.4182 48.1743C21.7924 47.5724 23.2462 47.2177 24.7542 47.2142H27L26.9928 49.3995C26.9891 51.1227 26.5552 52.8029 25.7487 54.3255C24.6819 56.303 23.1015 57.9188 21.1053 58.9613C19.6696 59.71 18.1832 60.1901 16.5197 60.2008H16.5233Z" fill="var(--fill-0, #EA2427)"/>
<path id="Vector_6" d="M12.9865 60.2116L10.1657 60.1973C9.11331 60.1901 8.13327 59.8856 7.15684 59.5202C5.06657 58.7392 3.31985 57.3957 2.02518 55.6045C0.864318 53.9959 0.0216984 51.5849 0.0108492 49.6288L0 47.2142L1.89861 47.207L3.73574 47.3467C7.19662 47.8411 10.1838 49.9261 11.8256 52.9856C12.4983 54.2359 12.8924 55.5758 12.9865 56.9981V60.208V60.2116Z" fill="var(--fill-0, #EA2427)"/>
<path id="Vector_7" d="M16.7945 36.5167L13.9882 36.549V34.1021C13.9882 31.8988 14.6826 29.8174 16.0098 28.0512C17.1309 26.4677 18.657 25.2819 20.4399 24.483C21.749 23.8991 23.1377 23.5981 24.5806 23.5838L26.9891 23.5659L26.9494 26.4713C26.9385 27.3562 26.6709 28.1766 26.4431 29.0364C25.5715 31.6087 23.8212 33.7725 21.438 35.116C19.9987 35.9364 18.4798 36.4057 16.7909 36.5167H16.7945Z" fill="var(--fill-0, #EA2427)"/>
<path id="Vector_8" d="M13.0154 36.5382L10.6358 36.549C7.67399 36.4522 4.91468 35.1948 2.92928 33.0345C1.71055 31.7126 0.831771 30.1936 0.40142 28.4525C0.162738 27.5926 0.0144656 26.7543 0.0108492 25.8587V23.5623L2.4917 23.5802C6.95794 23.616 11.0553 26.7293 12.5236 30.9029C12.7695 31.7591 12.9973 32.5724 13.0046 33.468L13.0226 36.5346L13.0154 36.5382Z" fill="var(--fill-0, #EA2427)"/>
<path id="Vector_9" d="M12.9901 22.4947L13.0082 24.8126H10.8673C9.27605 24.8126 7.72823 24.4329 6.28529 23.7522C4.28904 22.81 2.6906 21.3125 1.53335 19.4567C0.585856 17.8123 0.0831771 16.0067 0.0216984 14.1044L0.0108492 11.8116L2.6038 11.8295C3.7719 11.8367 4.8532 12.0839 5.93089 12.4923C8.84932 13.5993 11.1964 15.7882 12.3428 18.6829C12.6104 19.3528 12.7767 20.0299 12.8997 20.7357L12.9901 22.4911V22.4947Z" fill="var(--fill-0, #EA2427)"/>
<path id="Vector_10" d="M11.8545 11.7973H14.8634V66.8106C14.8634 67.4662 14.3245 68 13.6627 68H13.0516C12.3898 68 11.8509 67.4662 11.8509 66.8106V11.7973H11.8545Z" fill="var(--fill-0, #EA2427)"/>
</g>
<defs>
<clipPath id="clip0_0_17">
<rect width="27" height="68" fill="white"/>
</clipPath>
</defs>
</svg>
