<svg preserveAspectRatio="none" width="100%" height="100%" overflow="visible" style="display: block;" viewBox="0 0 32 62" fill="none" xmlns="http://www.w3.org/2000/svg">
<g id="Isolation_Mode" clip-path="url(#clip0_0_28)">
<path id="Vector" d="M26.7523 61.9999H5.24771C2.26533 61.4662 0 59.0612 0 55.9063L0.0107023 31.1279C0.0107023 28.1207 0.324638 25.2073 1.42698 22.4562L3.50323 17.2784C4.69833 14.2965 5.46533 11.2641 5.7757 8.05502C3.61739 7.918 2.01204 6.15481 2.01204 4.06351C2.01204 1.95417 3.55318 0.223437 5.72932 0.00348939H26.2778C28.4504 0.223437 29.9987 1.95417 29.9915 4.06351C29.988 6.15481 28.3933 7.91439 26.2172 8.06223C26.5061 10.5285 26.9378 12.9119 27.7512 15.2556C28.3469 16.9647 29.0069 18.5224 29.6954 20.199C31.258 23.6641 31.9929 27.2842 31.9964 31.1315L32.0036 55.9099C32.0036 59.0648 29.7347 61.4698 26.7559 62.0035L26.7523 61.9999ZM23.7307 25.7987C24.8972 25.2578 25.864 24.6701 26.8843 24.0499C26.2814 22.1389 25.5501 20.4586 24.7117 18.6774C23.3204 15.3061 22.5819 11.7977 22.2074 8.09107H9.79264C9.40736 11.859 8.65819 15.4359 7.21338 18.8397C6.59264 20.163 6.04682 21.3853 5.51527 22.8167C8.97213 22.4093 12.1436 23.2819 14.9512 25.146C17.6196 26.92 20.7875 27.1616 23.7307 25.7987Z" fill="var(--fill-0, #EA2427)"/>
</g>
<defs>
<clipPath id="clip0_0_28">
<rect width="32" height="62" fill="white"/>
</clipPath>
</defs>
</svg>
