<svg preserveAspectRatio="none" width="100%" height="100%" overflow="visible" style="display: block;" viewBox="0 0 64 55" fill="none" xmlns="http://www.w3.org/2000/svg">
<g id="Isolation_Mode" clip-path="url(#clip0_0_32)">
<path id="Vector" d="M49.8851 52.1898C46.3004 54.0387 41.7974 55.0884 37.9189 53.8914C36.211 53.361 34.7785 52.3813 33.6032 51.0112C31.2415 48.2562 30.7935 44.3447 32.2847 41.0336C33.4857 38.3634 35.9575 35.8809 38.4073 34.2972C41.0371 32.5993 43.8212 31.3065 46.8072 30.3747C48.6731 29.7927 50.4764 29.4797 52.4084 29.2661C55.1484 28.9677 57.8442 29.0745 60.5328 29.6896C61.4584 29.8996 62.3178 30.1832 63.1185 30.6362C64.3085 31.3065 64.0478 33.0081 63.7098 34.5476C62.0717 42.0207 56.6432 48.7019 49.8778 52.1898H49.8851Z" fill="var(--fill-0, #EA2427)"/>
<path id="Vector_2" d="M24.7956 13.5244C26.0518 12.471 27.6348 12.4084 29.0452 13.0125C32.123 14.3347 34.6316 17.0455 37.9225 16.3862C39.1933 16.1321 40.1667 15.377 40.7286 14.2021C41.5624 12.46 41.7607 10.5853 41.4742 8.66269L40.9269 4.98326C40.769 3.0975 41.7019 1.3959 43.3841 0.556151C44.7137 -0.10681 46.2269 -0.184156 47.6593 0.360946C50.7629 1.53954 53.2384 4.03301 54.3513 7.19313C56.4559 13.1561 53.6021 20.4487 48.9559 24.5774C44.2105 28.7983 37.4377 29.8885 31.6456 27.3508C27.7854 25.6603 24.6193 22.0324 23.5211 17.9589C23.0841 16.3457 23.5028 14.6036 24.7993 13.5207L24.7956 13.5244Z" fill="var(--fill-0, #EA2427)"/>
<path id="Vector_3" d="M29.8973 33.6747C30.1323 34.4813 30.0148 35.2806 29.8973 36.113C28.9423 42.8752 24.7846 48.9928 18.9815 52.5286C16.4582 54.0682 13.6668 55.0147 10.7065 55C8.02158 54.9853 5.49831 54.0976 3.54801 52.2782C0.24241 49.1991 -0.528895 44.4589 0.315868 40.0797C1.78135 32.4851 7.26496 25.5645 14.6364 22.9164L13.9606 26.721C13.2114 30.9492 11.0187 39.7335 9.46135 43.5934L7.56981 48.282C7.48534 48.4919 7.39719 48.875 7.59185 49.0333C7.73877 49.1549 8.08402 48.9523 8.21991 48.8418L10.6844 46.8382L17.3103 40.9194C20.9501 37.6672 25.0491 35.1811 29.8936 33.6747H29.8973Z" fill="var(--fill-0, #EA2427)"/>
<path id="Vector_4" d="M11.9552 43.4461C11.5622 43.7886 10.8974 43.3908 11.0958 42.8715C12.5906 38.9232 14.3683 30.2605 14.9266 28.0138C15.0147 27.6639 15.2021 27.3582 15.4922 27.1446C17.8686 25.3767 21.5672 24.1944 24.1088 25.6787C26.2538 26.9899 26.5549 31.266 25.791 33.2733C25.6881 33.5385 25.5045 33.741 25.2768 33.9068C23.3265 35.3174 13.586 42.0391 11.9589 43.4497L11.9552 43.4461Z" fill="var(--fill-0, #EA2427)"/>
</g>
<defs>
<clipPath id="clip0_0_32">
<rect width="64" height="55" fill="white"/>
</clipPath>
</defs>
</svg>
