<svg preserveAspectRatio="none" width="100%" height="100%" overflow="visible" style="display: block;" viewBox="0 0 49 55" fill="none" xmlns="http://www.w3.org/2000/svg">
<g id="Isolation_Mode" clip-path="url(#clip0_0_37)">
<path id="Vector" d="M30.4514 43.2519C28.9824 48.7663 24.7271 53.0828 19.2337 54.5073C11.8996 56.4066 4.36693 52.6512 1.3315 45.8706C-1.74002 39.0073 0.631295 30.9677 6.98007 26.7735C8.79195 25.5756 10.6002 24.4461 12.3507 23.1116C14.4189 21.5325 15.9167 19.572 16.8118 17.126C17.4615 15.3562 18.0462 13.662 18.5263 11.8238C20.0422 6.04325 24.6116 1.54685 30.5092 0.320233C35.8365 -0.787681 41.3046 1.04325 44.9139 4.96052C48.6135 8.97491 49.9453 14.608 48.3139 19.8742C47.177 23.5397 44.7443 26.5612 41.4959 28.5864C39.7743 29.662 38.179 30.7303 36.5764 31.9497C34.5552 33.4893 33.1115 35.4281 32.2164 37.8058C31.5378 39.6044 30.9712 41.3058 30.4514 43.2519ZM35.6019 10.6584L36.7894 9.07203C37.356 8.31664 37.107 7.35261 36.3382 6.8634L34.8115 5.89217C34.1293 5.45692 33.2631 5.50009 32.7361 6.16556L31.4368 7.80584C30.9062 8.47491 31.1119 9.44973 31.7977 9.91376L33.4905 11.0612C34.1907 11.5361 35.0822 11.3526 35.6055 10.6584H35.6019ZM28.5457 14.6116L29.7007 12.8742C30.1879 12.144 29.9786 11.2231 29.2567 10.7483L27.6939 9.71592C26.8565 9.16556 25.9037 9.70513 25.4994 10.4965L24.543 12.3742C24.2362 12.9749 24.5646 13.7519 25.0844 14.0972L26.4559 15.0145C27.1272 15.4641 28.0657 15.3274 28.5421 14.6116H28.5457ZM34.6238 19.072L35.786 17.5684C36.3274 16.867 36.3165 15.903 35.5514 15.3346L33.9272 14.1332C33.2559 13.6368 32.2669 13.8238 31.8121 14.5109L30.6319 16.2879C30.1807 16.9641 30.354 17.8238 30.9892 18.3094L32.4041 19.3886C33.1259 19.9389 34.0427 19.8238 34.6238 19.0756V19.072ZM16.5411 35.7087L17.79 34.0684C18.3386 33.349 18.1365 32.3526 17.3785 31.8742L15.7038 30.8202C15.0974 30.4389 14.2384 30.5181 13.7836 31.0972L12.3904 32.8706C11.8635 33.5397 12.1703 34.4821 12.8272 34.9281L14.4586 36.0325C15.1227 36.4821 16.0142 36.3994 16.5411 35.7123V35.7087ZM9.59321 39.5504L10.7338 37.8094C11.2246 37.0612 10.9142 36.1835 10.2321 35.7195L8.87135 34.7987C8.11701 34.2879 7.07392 34.4497 6.62997 35.3022L5.58327 37.3022C5.24399 37.9533 5.56522 38.7447 6.12828 39.1152L7.49981 40.0253C8.19641 40.4893 9.12039 40.2807 9.59682 39.5504H9.59321ZM15.6677 44.0145L16.8588 42.4317C17.3785 41.7375 17.2053 40.8238 16.5231 40.3166L15.0252 39.1943C14.3214 38.6656 13.3072 38.7339 12.7911 39.5145L11.5783 41.3526C11.1669 41.9749 11.3726 42.8382 11.9501 43.2771L13.4335 44.3994C14.1843 44.9677 15.1082 44.7591 15.6677 44.0145Z" fill="var(--fill-0, #EA2427)"/>
</g>
<defs>
<clipPath id="clip0_0_37">
<rect width="49" height="55" fill="white"/>
</clipPath>
</defs>
</svg>
