<svg preserveAspectRatio="none" width="100%" height="100%" overflow="visible" style="display: block;" viewBox="0 0 38 36" fill="none" xmlns="http://www.w3.org/2000/svg">
<g id="Layer_1" clip-path="url(#clip0_0_4)">
<path id="Vector" d="M21.0986 33.4971C24.4781 36.9009 29.4493 36.7048 33.0942 33.6715C35.2527 31.8733 36.7535 29.4648 37.4803 26.7475C37.7747 25.6468 37.851 24.5933 37.8401 23.4563C37.8292 22.1086 38.218 21.0115 37.8183 19.5003C37.4912 18.2507 36.6082 17.2953 35.3872 16.8702C33.8173 16.3217 32.5236 16.7758 30.9465 16.7613C27.2835 16.7213 23.7332 18.4141 21.3021 21.0914C17.9879 24.7423 17.5664 29.9407 21.0986 33.5007V33.4971ZM30.8157 29.8426C31.9059 28.7056 32.7417 27.3942 33.1741 25.8648C33.6465 24.1974 33.145 23.0676 34.1735 23.0531C34.5586 23.0458 34.9184 23.3546 34.9148 23.8014C34.893 26.4569 33.7483 28.9163 31.924 30.7835C31.6406 31.0741 31.2336 31.0922 30.9429 30.8779C30.6558 30.6636 30.5177 30.1514 30.8121 29.8462L30.8157 29.8426Z" fill="var(--fill-0, #EA2427)"/>
<path id="Vector_2" d="M13.104 14.8795C15.9711 17.9346 20.4154 18.0182 23.6969 15.4353C26.1897 13.4737 27.8287 10.5639 28.1557 7.39616L28.2284 5.28194C28.2575 4.47185 28.3919 3.70171 28.2466 2.91705C27.9958 1.57659 27.091 0.544903 25.7791 0.170735C25.1105 -0.0181649 24.4164 -0.0108996 23.6823 0.0290601L21.5965 0.141674C20.1356 0.21796 18.7547 0.508576 17.4283 1.10797C15.7313 1.87447 14.2705 2.96428 13.0894 4.40282C10.4912 7.57417 10.2695 11.8607 13.104 14.8831V14.8795ZM14.1033 8.5223C14.3976 7.43976 14.9791 6.53522 15.7604 5.69243C16.0838 5.34006 16.5235 5.29647 16.8324 5.57255C17.1558 5.86317 17.1558 6.33178 16.8396 6.64783C15.2916 8.20626 14.7102 10.3822 16.2691 11.9588C16.5598 12.2531 16.6143 12.6527 16.3781 12.9542C16.1419 13.263 15.6623 13.3574 15.3425 13.0559C14.0997 11.8825 13.6527 10.1715 14.0997 8.5223H14.1033Z" fill="var(--fill-0, #EA2427)"/>
<path id="Vector_3" d="M1.95506 32.5308C4.05184 34.7104 7.14432 35.2771 9.91337 34.0129C11.545 33.2682 12.8423 32.0694 13.8707 30.5909C15.2298 28.6329 15.8149 26.4206 15.7713 24.0412C15.7567 23.3001 15.9312 22.5699 15.8439 21.8616C15.6441 20.2305 14.5357 19.0608 12.8714 18.8137C12.1046 18.7011 11.3742 18.89 10.6329 18.8755C8.20542 18.8246 5.94148 19.4494 3.96099 20.8626C2.49652 21.9088 1.31186 23.2311 0.599608 24.8876C-0.54508 27.5431 -0.0326954 30.471 1.95506 32.5344V32.5308ZM4.42614 29.0688C4.74592 28.7709 5.24014 28.7709 5.58173 29.0979C6.65373 30.1223 7.99102 29.6464 9.0703 28.6111C9.43732 28.2587 9.96424 28.2842 10.2768 28.6293C10.5929 28.978 10.5638 29.4902 10.1968 29.8317C9.58632 30.4093 8.90677 30.8779 8.10367 31.1467C6.76275 31.5935 5.32372 31.2593 4.36799 30.2204C4.04821 29.8753 4.12089 29.3594 4.42977 29.0725L4.42614 29.0688Z" fill="var(--fill-0, #EA2427)"/>
</g>
<defs>
<clipPath id="clip0_0_4">
<rect width="38" height="36" fill="white"/>
</clipPath>
</defs>
</svg>
