<svg preserveAspectRatio="none" width="100%" height="100%" overflow="visible" style="display: block;" viewBox="0 0 46 46" fill="none" xmlns="http://www.w3.org/2000/svg">
<g id="Layer_1" clip-path="url(#clip0_0_8)">
<path id="Vector" d="M11.8435 37.8542C13.8837 37.8542 15.5376 36.2003 15.5376 34.1601C15.5376 32.12 13.8837 30.4661 11.8435 30.4661C9.80331 30.4661 8.14942 32.12 8.14942 34.1601C8.14942 36.2003 9.80331 37.8542 11.8435 37.8542Z" fill="var(--fill-0, #EA2427)"/>
<path id="Vector_2" d="M23.0054 19.3077C20.9681 19.3077 19.315 20.9608 19.315 22.9982C19.315 25.0355 20.9681 26.6886 23.0054 26.6886C25.0428 26.6886 26.6959 25.0355 26.6959 22.9982C26.6959 20.9608 25.0428 19.3077 23.0054 19.3077ZM23.0054 19.3077C20.9681 19.3077 19.315 20.9608 19.315 22.9982C19.315 25.0355 20.9681 26.6886 23.0054 26.6886C25.0428 26.6886 26.6959 25.0355 26.6959 22.9982C26.6959 20.9608 25.0428 19.3077 23.0054 19.3077ZM45.9094 9.89676C45.5469 7.30475 45.4417 4.70912 45.3837 2.17149C45.3837 1.69296 45.4163 1.21444 45.4707 0.735913C45.5034 0.522027 45.4816 0.500276 45.2641 0.532902C44.6696 0.594531 44.0714 0.634408 43.4696 0.619907L38.9925 0.406021L35.516 0.0435022C35.2187 0.0290015 34.9214 0.0145007 34.6278 0H33.6417C30.2196 0.0543778 26.9025 1.82347 24.7854 4.53148C23.9045 5.65892 23.3063 6.94223 22.7988 8.16755C22.4472 8.92884 21.9578 9.62125 21.3669 10.2194C20.4461 11.1438 19.4201 11.6586 18.2746 12.1009C16.4765 12.8622 14.8959 14.0911 13.6778 15.6209C12.7389 16.7991 12.1371 18.1151 11.6042 19.4129C10.8683 20.9608 9.58137 22.1898 8.02254 22.8894C6.30058 23.5347 4.73087 24.4591 3.41855 25.7715C1.34857 27.8487 0.0326267 30.7996 0 33.7142V34.6568C0.0108756 35.0157 0.0290015 35.3782 0.0435022 35.7407C0.232012 37.8324 0.409646 39.9097 0.58003 41.9797C0.634408 43.0853 0.619907 44.1947 0.518402 45.2967C0.478525 45.4018 0.500276 45.4453 0.58003 45.4743L1.32682 45.4127L3.99496 45.4055C5.85468 45.4888 7.71077 45.6484 9.54149 45.8912C10.1469 45.9492 10.7451 45.9819 11.3432 45.9964H12.3329C14.2869 46 16.3097 45.3511 18.0208 44.3107C19.8842 43.176 21.4067 41.5736 22.4 39.6305L23.1432 37.9666C23.8066 36.4766 24.9377 35.2513 26.3877 34.49L28.0988 33.7287C30.7053 32.5361 32.7789 30.3501 33.9209 27.7254C34.2943 26.714 34.7583 25.7751 35.4725 24.963C36.0271 24.3323 36.6978 23.7885 37.4337 23.3861L38.5937 22.8604C42.8606 21.1856 45.942 16.9514 46.0073 12.3728V11.3831C45.9928 10.8901 45.9601 10.3898 45.9166 9.89314L45.9094 9.89676ZM11.8471 40.5368C8.32343 40.5368 5.47041 37.6802 5.47041 34.1601C5.47041 30.6401 8.32706 27.7798 11.8471 27.7798C15.3672 27.7798 18.2274 30.6365 18.2274 34.1601C18.2274 37.6838 15.3708 40.5368 11.8471 40.5368ZM23.0054 29.3749C19.4854 29.3749 16.6287 26.5219 16.6287 22.9982C16.6287 19.4745 19.4818 16.6215 23.0054 16.6215C26.5291 16.6215 29.3821 19.4745 29.3821 22.9982C29.3821 26.5219 26.5291 29.3749 23.0054 29.3749ZM34.1674 18.2202C30.6437 18.2202 27.7871 15.3635 27.7871 11.8399C27.7871 8.31618 30.6437 5.45953 34.1674 5.45953C37.6911 5.45953 40.5477 8.31618 40.5477 11.8399C40.5477 15.3635 37.6911 18.2202 34.1674 18.2202ZM34.1638 8.14942C32.1264 8.14942 30.4733 9.80251 30.4733 11.8399C30.4733 13.8772 32.1264 15.5267 34.1638 15.5267C36.2011 15.5267 37.8506 13.8736 37.8506 11.8399C37.8506 9.80613 36.1975 8.14942 34.1638 8.14942ZM23.0054 19.3077C20.9681 19.3077 19.315 20.9608 19.315 22.9982C19.315 25.0355 20.9681 26.6886 23.0054 26.6886C25.0428 26.6886 26.6959 25.0355 26.6959 22.9982C26.6959 20.9608 25.0428 19.3077 23.0054 19.3077Z" fill="var(--fill-0, #EA2427)"/>
<path id="Vector_3" d="M37.8542 11.8399C37.8542 13.8772 36.2011 15.5267 34.1674 15.5267C32.1337 15.5267 30.4769 13.8736 30.4769 11.8399C30.4769 9.80613 32.13 8.14942 34.1674 8.14942C36.2047 8.14942 37.8542 9.80251 37.8542 11.8399Z" fill="var(--fill-0, #EA2427)"/>
<path id="Vector_4" d="M37.8542 11.8399C37.8542 13.8772 36.2011 15.5267 34.1674 15.5267C32.1337 15.5267 30.4769 13.8736 30.4769 11.8399C30.4769 9.80613 32.13 8.14942 34.1674 8.14942C36.2047 8.14942 37.8542 9.80251 37.8542 11.8399Z" fill="var(--fill-0, #EA2427)"/>
<path id="Vector_5" d="M23.0054 26.6886C25.0436 26.6886 26.6959 25.0364 26.6959 22.9982C26.6959 20.96 25.0436 19.3077 23.0054 19.3077C20.9673 19.3077 19.315 20.96 19.315 22.9982C19.315 25.0364 20.9673 26.6886 23.0054 26.6886Z" fill="var(--fill-0, #EA2427)"/>
<path id="Vector_6" d="M23.0054 26.6886C25.0436 26.6886 26.6959 25.0364 26.6959 22.9982C26.6959 20.96 25.0436 19.3077 23.0054 19.3077C20.9673 19.3077 19.315 20.96 19.315 22.9982C19.315 25.0364 20.9673 26.6886 23.0054 26.6886Z" fill="var(--fill-0, #EA2427)"/>
<path id="Vector_7" d="M11.8435 37.8542C13.8837 37.8542 15.5376 36.2003 15.5376 34.1601C15.5376 32.12 13.8837 30.4661 11.8435 30.4661C9.80331 30.4661 8.14942 32.12 8.14942 34.1601C8.14942 36.2003 9.80331 37.8542 11.8435 37.8542Z" fill="var(--fill-0, #EA2427)"/>
<path id="Vector_8" d="M11.8435 37.8542C13.8837 37.8542 15.5376 36.2003 15.5376 34.1601C15.5376 32.12 13.8837 30.4661 11.8435 30.4661C9.80331 30.4661 8.14942 32.12 8.14942 34.1601C8.14942 36.2003 9.80331 37.8542 11.8435 37.8542Z" fill="var(--fill-0, #EA2427)"/>
</g>
<defs>
<clipPath id="clip0_0_8">
<rect width="46" height="46" fill="white"/>
</clipPath>
</defs>
</svg>
