<svg width="61" height="40" viewBox="0 0 61 40" fill="none" xmlns="http://www.w3.org/2000/svg">
<g id="iPhone 16 - 6">
<g id="Group 43">
<g id="Layer_1" clip-path="url(#clip0_0_1)">
<path id="Vector" d="M0 20.9331L0.00266678 18.2169C0.682697 9.3031 7.29454 1.95383 16.0247 0.333046C23.7566 -1.1022 31.5427 2.19289 35.9029 8.64568C40.3778 15.2689 40.4471 23.9767 36.0194 30.6177C31.2636 37.7511 22.6072 40.9784 14.3606 38.71C6.2865 36.4889 0.504911 29.2877 0 20.9331ZM34.9233 19.7146C34.9233 11.237 28.0741 4.36404 19.6257 4.36404C11.1774 4.36404 4.32908 11.2361 4.32908 19.7146C4.32908 28.1932 11.1783 35.0652 19.6266 35.0652C28.075 35.0652 34.9242 28.1923 34.9242 19.7146H34.9233Z" fill="black"/>
<path id="Vector_2" d="M61 19.2754V21.0443C60.6862 24.6917 59.0222 27.6023 55.678 29.3355C53.8779 30.2302 51.9552 30.6557 49.9178 30.6593L43.025 30.6726V9.63013L50.3498 9.66224C52.4894 9.67116 54.4878 10.2759 56.3207 11.3178C59.3226 13.1884 60.6862 15.8635 61 19.2754ZM52.7312 14.3988C51.9623 14.1187 51.1916 13.8877 50.3658 13.8859L47.6501 13.8797V26.4231C48.7862 26.4062 49.8235 26.4641 50.884 26.3758C53.2228 26.1805 55.0798 24.6355 55.7091 22.3992C56.5625 19.3718 55.734 15.7556 52.7312 14.3979V14.3988Z" fill="black"/>
<path id="Vector_3" d="M23.5121 9.39551L28.4226 9.39194V22.1093C28.3754 25.8531 26.7692 29.1446 23.0899 30.2757C20.7982 30.9804 18.3101 30.9875 16.0051 30.3078C12.3934 29.2418 10.6929 26.0663 10.5925 22.376L10.5898 9.3973L15.526 9.39105L15.5233 21.575C15.5589 23.1815 16.0567 24.6667 17.4123 25.4784C18.2141 25.9583 19.127 26.0565 20.0542 25.9699C22.337 25.7568 23.4872 23.8505 23.5121 21.575V9.39551Z" fill="black"/>
</g>
</g>
</g>
<defs>
<clipPath id="clip0_0_1">
<rect width="61" height="39.4268" fill="white"/>
</clipPath>
</defs>
</svg>
