<svg width="29" height="40" viewBox="0 0 29 40" fill="none" xmlns="http://www.w3.org/2000/svg">
<g clip-path="url(#clip0_148_445)">
<path d="M14.9127 21.5911C14.9127 21.5911 12.4468 27.0791 11.1551 29.2422C10.842 29.763 10.0983 29.6028 9.90264 29.2422C9.66779 28.8016 9.51123 28.361 9.43295 27.68C7.59332 31.4054 8.29786 35.4913 11.1943 38.5357C11.5466 38.8963 11.39 39.377 11.2726 39.5372C11.0769 39.7775 10.6463 40.0179 10.2158 39.8977C2.70071 37.9349 -1.52651 30.1636 0.508815 22.5525C1.52648 18.8672 3.1704 15.5023 5.87112 12.8184C6.10597 12.578 6.4191 12.4979 6.69308 12.538C7.78903 12.6982 6.84965 15.0216 7.31934 17.1447C10.294 11.8971 13.1122 7.29037 11.4683 1.20153C11.3509 0.800948 11.4683 0.360309 11.7031 0.200076C11.9771 -0.0402728 12.5642 -0.120389 12.9556 0.200076C18.3571 4.44624 21.4101 10.9757 21.6841 17.9058C23.054 15.9029 22.1929 13.4593 23.1323 13.0587C23.4063 12.9386 23.876 12.9386 24.2282 13.3792C27.0855 17.2649 28.9643 22.0318 28.5729 27.0791C27.9075 35.5714 19.4139 40.9392 18.2397 39.5772C17.9657 39.2568 18.0831 38.8161 18.3571 38.4156C20.2358 36.0121 21.1361 33.0878 20.5881 29.9633C19.4139 31.7258 17.1437 32.4068 16.4 31.5656C16.2043 31.3253 16.0478 30.9247 16.0869 30.444C16.1652 27.4396 16.0478 24.5154 14.8735 21.5911H14.9127Z" fill="white"/>
</g>
<defs>
<clipPath id="clip0_148_445">
<rect width="28.6512" height="39.938" fill="white"/>
</clipPath>
</defs>
</svg>
