<svg width="43" height="43" viewBox="0 0 43 43" fill="none" xmlns="http://www.w3.org/2000/svg">
<g clip-path="url(#clip0_148_473)">
<path d="M24.5541 30.7891L12.1759 18.4574L15.5738 14.3871L26.0508 1.7732C27.6688 -0.161196 30.6218 -0.765694 32.523 1.1687L41.7864 10.3974C43.4854 12.09 43.3236 14.8304 41.6651 16.523L24.5541 30.7891ZM31.5522 20.4321L39.238 14.0647C39.6425 13.702 39.6425 13.0975 39.238 12.7348L30.2577 3.7479C29.8128 3.3046 29.206 3.3852 28.8419 3.8285L18.2436 16.523L19.0122 17.2887C20.0235 18.2559 21.4798 18.4171 22.7742 17.8932C25.2418 16.8857 27.9925 17.329 30.0555 19.0216L31.5117 20.3918L31.5522 20.4321Z" fill="white"/>
<path d="M20.8325 35.1818L20.064 34.4161C16.7469 36.552 12.4186 36.0684 9.62746 33.328C6.8363 30.5876 6.31043 26.2755 8.49482 22.8903L7.72624 22.0843C7.07901 21.3992 7.07901 20.3514 7.72624 19.6663C8.37346 18.9812 9.46566 18.8603 10.1533 19.5857L23.3405 32.7638C24.0282 33.4489 23.9069 34.6176 23.2596 35.1818C22.6124 35.746 21.5202 35.8266 20.8325 35.1415V35.1818Z" fill="white"/>
<path d="M3.31702 36.5923C4.32236 36.5923 5.13734 35.7804 5.13734 34.7788C5.13734 33.7773 4.32236 32.9653 3.31702 32.9653C2.31169 32.9653 1.4967 33.7773 1.4967 34.7788C1.4967 35.7804 2.31169 36.5923 3.31702 36.5923Z" fill="white"/>
<path d="M1.82032 43C2.82565 43 3.64064 42.188 3.64064 41.1865C3.64064 40.1849 2.82565 39.373 1.82032 39.373C0.814985 39.373 0 40.1849 0 41.1865C0 42.188 0.814985 43 1.82032 43Z" fill="white"/>
<path d="M8.25211 41.4686C9.25745 41.4686 10.0724 40.6567 10.0724 39.6551C10.0724 38.6535 9.25745 37.8416 8.25211 37.8416C7.24678 37.8416 6.43179 38.6535 6.43179 39.6551C6.43179 40.6567 7.24678 41.4686 8.25211 41.4686Z" fill="white"/>
</g>
<defs>
<clipPath id="clip0_148_473">
<rect width="43" height="43" fill="white"/>
</clipPath>
</defs>
</svg>
