<svg width="38" height="36" viewBox="0 0 38 36" fill="none" xmlns="http://www.w3.org/2000/svg">
<g clip-path="url(#clip0_152_495)">
<path d="M11.6923 36L1.16122 30.4276C0.640674 30.147 0.160169 29.9065 0 29.2651V16.4766C0 15.8352 0.880927 15.3942 1.40148 15.1537L10.6512 10.1426C11.0917 9.90203 11.6122 9.86194 12.0527 10.1025L14.8957 11.666V6.81517C14.9357 6.41428 15.1359 5.9733 15.4963 5.77285L25.7471 0.160381C26.2276 -0.0801532 26.7482 -0.0801532 27.2287 0.160381L36.9989 5.33187C37.6396 5.65259 38.04 6.09357 38.04 6.85526V18.6815C38.04 19.4432 37.7197 19.8842 37.079 20.245L27.6691 25.5368C27.0285 25.8976 26.4679 25.8976 25.8272 25.5368L23.0242 24.0134V29.666L11.7324 35.9199L11.6923 36Z" fill="white"/>
</g>
<defs>
<clipPath id="clip0_152_495">
<rect width="38" height="36" fill="white"/>
</clipPath>
</defs>
</svg>
