<svg width="57" height="27" viewBox="0 0 57 27" fill="none" xmlns="http://www.w3.org/2000/svg">
<path d="M20.2164 24.0139C14.1868 28.683 3.29326 27.9522 0.238257 20.8469C-0.364705 19.2229 0.198059 17.7206 1.68536 16.9086C3.29326 14.2695 4.94136 11.7116 7.03163 9.43792C11.5337 4.56574 16.9604 8.9913 21.3419 13.0108C23.2714 12.5236 24.8391 11.468 26.4872 10.453C29.8638 8.34168 33.1198 6.3522 36.7375 4.68754C40.6367 2.90108 44.4153 1.23641 48.5958 0.343181C52.1734 -0.428247 56.5147 -0.0628339 56.9569 3.14468C57.3186 5.86499 54.0627 7.08303 51.0478 7.77326L41.1995 10.0063C35.411 11.3056 30.1452 13.9853 25.6832 17.883C24.0753 20.2379 22.3871 22.2274 20.1762 24.0139H20.2164Z" fill="white"/>
</svg>
