<svg width="91" height="91" viewBox="0 0 91 91" fill="none" xmlns="http://www.w3.org/2000/svg">
<rect width="91" height="91" fill="#1E1E1E"/>
<g id="iPhone 16 - 2">
<rect width="393" height="852" transform="translate(-151 -655.784)" fill="white"/>
<g id="Group">
<path id="Vector" d="M45.4032 83.5739C66.4612 83.5739 83.5321 66.4945 83.5321 45.426C83.5321 24.3575 66.4612 7.27808 45.4032 7.27808C24.3453 7.27808 7.27441 24.3575 7.27441 45.426C7.27441 66.4945 24.3453 83.5739 45.4032 83.5739Z" fill="#29256A"/>
<g id="Group_2">
<path id="Vector_2" d="M25.2204 32.5656C24.7367 32.5656 24.3402 32.1726 24.3402 31.685V26.3647C24.3402 25.1711 25.3113 24.1959 26.508 24.1959H32.0984C32.5821 24.1959 32.9786 24.5889 32.9786 25.0765C32.9786 25.5642 32.5858 25.9571 32.0984 25.9571H26.508C26.2825 25.9571 26.1006 26.1391 26.1006 26.3647V31.685C26.1006 32.169 25.7078 32.5656 25.2204 32.5656Z" fill="white"/>
<path id="Vector_3" d="M65.5861 32.704C65.1023 32.704 64.7059 32.3109 64.7059 31.8233V26.2301C64.7059 26.0045 64.524 25.8226 64.2985 25.8226H58.9809C58.4972 25.8226 58.1007 25.4296 58.1007 24.9419C58.1007 24.4543 58.4935 24.0613 58.9809 24.0613H64.2985C65.4915 24.0613 66.4663 25.0329 66.4663 26.2301V31.8233C66.4663 32.3073 66.0735 32.704 65.5861 32.704Z" fill="white"/>
<path id="Vector_4" d="M32.0984 66.6524H26.508C25.315 66.6524 24.3402 65.6808 24.3402 64.4872V59.1669C24.3402 58.6829 24.733 58.2863 25.2204 58.2863C25.7078 58.2863 26.1006 58.6793 26.1006 59.1669V64.4872C26.1006 64.7128 26.2825 64.8948 26.508 64.8948H32.0984C32.5821 64.8948 32.9786 65.2878 32.9786 65.7754C32.9786 66.263 32.5858 66.6561 32.0984 66.6561V66.6524Z" fill="white"/>
<path id="Vector_5" d="M64.2985 66.7907H58.9809C58.4972 66.7907 58.1007 66.3977 58.1007 65.91C58.1007 65.4224 58.4935 65.0294 58.9809 65.0294H64.2985C64.524 65.0294 64.7059 64.8474 64.7059 64.6218V59.0286C64.7059 58.5446 65.0987 58.148 65.5861 58.148C66.0735 58.148 66.4663 58.541 66.4663 59.0286V64.6218C66.4663 65.8154 65.4952 66.7907 64.2985 66.7907Z" fill="white"/>
</g>
<g id="Group_3">
<g id="Group_4">
<path id="Vector_6" d="M38.889 34.3669H35.23C34.7439 34.3669 34.3498 34.7612 34.3498 35.2476V38.9085C34.3498 39.3949 34.7439 39.7891 35.23 39.7891H38.889C39.3752 39.7891 39.7692 39.3949 39.7692 38.9085V35.2476C39.7692 34.7612 39.3752 34.3669 38.889 34.3669Z" fill="white"/>
<path id="Vector_7" d="M29.6942 30.7171V43.4427C29.6942 43.9995 30.1452 44.4507 30.7017 44.4507H43.421C43.9775 44.4507 44.4285 43.9995 44.4285 43.4427V30.7171C44.4285 30.1603 43.9775 29.709 43.421 29.709H30.7017C30.1452 29.709 29.6942 30.1603 29.6942 30.7171ZM41.035 42.0635H33.0841C32.5276 42.0635 32.0766 41.6123 32.0766 41.0555V33.1006C32.0766 32.5438 32.5276 32.0926 33.0841 32.0926H41.035C41.5915 32.0926 42.0425 32.5438 42.0425 33.1006V41.0555C42.0425 41.6123 41.5915 42.0635 41.035 42.0635Z" fill="white"/>
<path id="Vector_8" d="M38.889 34.3669H35.23C34.7439 34.3669 34.3498 34.7612 34.3498 35.2476V38.9085C34.3498 39.3949 34.7439 39.7891 35.23 39.7891H38.889C39.3752 39.7891 39.7692 39.3949 39.7692 38.9085V35.2476C39.7692 34.7612 39.3752 34.3669 38.889 34.3669Z" fill="white"/>
<path id="Vector_9" d="M38.9436 34.3669H35.1754C34.7195 34.3669 34.3498 34.7368 34.3498 35.193V38.963C34.3498 39.4193 34.7195 39.7891 35.1754 39.7891H38.9436C39.3996 39.7891 39.7692 39.4193 39.7692 38.963V35.193C39.7692 34.7368 39.3996 34.3669 38.9436 34.3669Z" fill="white"/>
</g>
<g id="Group_5">
<path id="Vector_10" d="M55.5766 34.3669H51.9176C51.4315 34.3669 51.0374 34.7612 51.0374 35.2476V38.9085C51.0374 39.3949 51.4315 39.7891 51.9176 39.7891H55.5766C56.0628 39.7891 56.4569 39.3949 56.4569 38.9085V35.2476C56.4569 34.7612 56.0628 34.3669 55.5766 34.3669Z" fill="white"/>
<path id="Vector_11" d="M46.3818 30.7171V43.4427C46.3818 43.9995 46.8328 44.4507 47.3893 44.4507H60.1086C60.6651 44.4507 61.1161 43.9995 61.1161 43.4427V30.7171C61.1161 30.1603 60.6651 29.709 60.1086 29.709H47.3893C46.8328 29.709 46.3818 30.1603 46.3818 30.7171ZM57.7262 42.0635H49.7753C49.2188 42.0635 48.7678 41.6123 48.7678 41.0555V33.1006C48.7678 32.5438 49.2188 32.0926 49.7753 32.0926H57.7262C58.2827 32.0926 58.7337 32.5438 58.7337 33.1006V41.0555C58.7337 41.6123 58.2827 42.0635 57.7262 42.0635Z" fill="white"/>
<path id="Vector_12" d="M55.5766 34.3669H51.9176C51.4315 34.3669 51.0374 34.7612 51.0374 35.2476V38.9085C51.0374 39.3949 51.4315 39.7891 51.9176 39.7891H55.5766C56.0628 39.7891 56.4569 39.3949 56.4569 38.9085V35.2476C56.4569 34.7612 56.0628 34.3669 55.5766 34.3669Z" fill="white"/>
<path id="Vector_13" d="M55.6312 34.3669H51.8631C51.4071 34.3669 51.0374 34.7368 51.0374 35.193V38.963C51.0374 39.4193 51.4071 39.7891 51.8631 39.7891H55.6312C56.0872 39.7891 56.4569 39.4193 56.4569 38.963V35.193C56.4569 34.7368 56.0872 34.3669 55.6312 34.3669Z" fill="white"/>
</g>
<g id="Group_6">
<path id="Vector_14" d="M38.889 51.0665H35.23C34.7439 51.0665 34.3498 51.4608 34.3498 51.9471V55.608C34.3498 56.0943 34.7439 56.4886 35.23 56.4886H38.889C39.3752 56.4886 39.7692 56.0943 39.7692 55.608V51.9471C39.7692 51.4608 39.3752 51.0665 38.889 51.0665Z" fill="white"/>
<path id="Vector_15" d="M29.6942 47.4129V60.1385C29.6942 60.6953 30.1452 61.1465 30.7017 61.1465H43.421C43.9775 61.1465 44.4285 60.6953 44.4285 60.1385V47.4129C44.4285 46.8561 43.9775 46.4048 43.421 46.4048H30.7017C30.1452 46.4048 29.6942 46.8561 29.6942 47.4129ZM41.035 58.763H33.0841C32.5276 58.763 32.0766 58.3117 32.0766 57.7549V49.8C32.0766 49.2433 32.5276 48.792 33.0841 48.792H41.035C41.5915 48.792 42.0425 49.2433 42.0425 49.8V57.7549C42.0425 58.3117 41.5915 58.763 41.035 58.763Z" fill="white"/>
<path id="Vector_16" d="M38.889 51.0665H35.23C34.7439 51.0665 34.3498 51.4608 34.3498 51.9471V55.608C34.3498 56.0943 34.7439 56.4886 35.23 56.4886H38.889C39.3752 56.4886 39.7692 56.0943 39.7692 55.608V51.9471C39.7692 51.4608 39.3752 51.0665 38.889 51.0665Z" fill="white"/>
<path id="Vector_17" d="M38.9436 51.0665H35.1754C34.7195 51.0665 34.3498 51.4363 34.3498 51.8925V55.6626C34.3498 56.1188 34.7195 56.4886 35.1754 56.4886H38.9436C39.3996 56.4886 39.7692 56.1188 39.7692 55.6626V51.8925C39.7692 51.4363 39.3996 51.0665 38.9436 51.0665Z" fill="white"/>
</g>
<g id="Group_7">
<path id="Vector_18" d="M52.3759 50.4114V54.2615H46.4254V46.5649H49.0842V50.4114H52.3759Z" fill="white"/>
<path id="Vector_19" d="M55.2057 46.5649H52.3759V50.4114H55.2057V46.5649Z" fill="white"/>
<path id="Vector_20" d="M49.0843 58.2462H46.3818V61.1466H49.0843V58.2462Z" fill="white"/>
<path id="Vector_21" d="M55.2056 54.2615H52.3359V56.9981H55.2056V54.2615Z" fill="white"/>
<path id="Vector_22" d="M61.1125 46.605H58.3701V49.4907H61.1125V46.605Z" fill="white"/>
<path id="Vector_23" d="M61.1126 54.2615V61.1429H55.2057V56.9981H58.3701V54.2615H61.1126Z" fill="white"/>
</g>
</g>
<path id="Vector_24" d="M45.4033 90.8556C20.3684 90.8556 6.10352e-05 70.477 6.10352e-05 45.4296C6.10352e-05 20.3822 20.3684 0 45.4033 0C70.4382 0 90.8065 20.3785 90.8065 45.4296C90.8065 70.4806 70.4382 90.8556 45.4033 90.8556ZM45.4033 1.73582C21.325 1.73582 1.735 21.3356 1.735 45.4259C1.735 69.5163 21.325 89.1161 45.4033 89.1161C69.4816 89.1161 89.0716 69.5163 89.0716 45.4259C89.0716 21.3356 69.4816 1.73582 45.4033 1.73582Z" fill="#29256A"/>
</g>
</g>
</svg>
