<svg width="166" height="32" viewBox="0 0 165.56 31.6" fill="none" xmlns="http://www.w3.org/2000/svg">
  <g transform="translate(0, 4.3)" fill="#29256A">
    <path d="M0.453095 6.61528e-07H5.19968C5.45181 6.61528e-07 5.66008 0.204168 5.66008 0.45938V5.19174C5.66008 5.4433 5.45546 5.65112 5.19968 5.65112H0.460411C0.208283 5.65112 0 5.44695 0 5.19174V0.455736C0 0.20417 0.204622 0.00364454 0.453095 0.00364454V6.61528e-07Z" />
    <path d="M7.17285 0H11.9194C12.1716 0 12.3798 0.204167 12.3798 0.459379V5.18809C12.3798 5.43965 12.1752 5.64747 11.9194 5.64747H7.18016C6.92803 5.64747 6.71974 5.4433 6.71974 5.18809V0.452091C6.71974 0.200525 6.92438 0 7.17285 0Z" />
    <path d="M0.950048 6.73029H23.795C24.3248 6.73029 24.756 7.16051 24.756 7.68916V11.4189C24.756 11.9475 24.3248 12.3778 23.795 12.3778H0.96101C0.431177 12.3778 0 11.9475 0 11.4189V7.67822C0 7.15322 0.427523 6.73029 0.950048 6.73029Z" />
    <path d="M9.71971 13.4606H23.9887C24.4125 13.4606 24.756 13.8033 24.756 14.2262V18.3424C24.756 18.7653 24.4125 19.1081 23.9887 19.1081H9.72701C9.30314 19.1081 8.95966 18.7653 8.95966 18.3424V14.2189C8.95966 13.7997 9.29949 13.4606 9.71971 13.4606Z" />
  </g>
  <g transform="translate(28.0, 3.4)" fill="#29256A">
    <path d="M2.59802 16.4138H4.54926C6.95361 16.4138 8.53581 15.4257 8.53581 12.0132V6.59904H0V0H4.97313V2.98962H13.5382V11.2257C13.5382 16.782 11.7002 19.9976 5.25449 19.9976H2.59802V16.4174V16.4138Z" />
    <path d="M19.063 22.393H23.7548C24.2627 22.393 24.672 22.805 24.672 23.3081C24.672 23.8149 24.2591 24.2232 23.7548 24.2232H22.1872L22.4357 26.3123C22.4394 26.3488 22.443 26.3852 22.443 26.4217V26.7498C22.443 27.2566 22.0301 27.6649 21.5259 27.6649H21.2445C20.7366 27.6649 20.3273 27.2529 20.3273 26.7498V26.418C20.3273 26.3852 20.3273 26.3524 20.331 26.3233L20.5539 24.2269H19.0704C18.5624 24.2269 18.1532 23.8149 18.1532 23.3118C18.1532 22.805 18.5661 22.3966 19.0704 22.3966L19.063 22.393Z" />
    <path d="M15.5735 16.4138H19.8998C22.0776 16.4138 24.365 15.6226 24.365 11.7324V11.6486C24.365 8.09385 22.5563 6.59904 20.2396 6.59904H16.001V2.98962H20.6635C24.7889 2.98962 29.5391 4.85266 29.5391 11.3387V11.4517C29.5391 17.1211 25.9509 19.9976 20.4662 19.9976H15.5771V16.4174L15.5735 16.4138Z" />
    <path d="M34.7242 22.393H39.416C39.9239 22.393 40.3331 22.805 40.3331 23.3081C40.3331 23.8149 39.9202 24.2232 39.416 24.2232H34.7242C34.2163 24.2232 33.807 23.8112 33.807 23.3081C33.807 22.8013 34.2199 22.393 34.7242 22.393ZM43.1759 22.1378H43.9104C44.4183 22.1378 44.8276 22.5498 44.8276 23.0529V23.8441C44.8276 24.3508 44.4147 24.7592 43.9104 24.7592H43.1759C42.668 24.7592 42.2588 24.3472 42.2588 23.8441V23.0529C42.2588 22.5461 42.6717 22.1378 43.1759 22.1378ZM43.1759 25.6087H43.9104C44.4183 25.6087 44.8276 26.0206 44.8276 26.5238V27.2858C44.8276 27.7925 44.4147 28.2009 43.9104 28.2009H43.1759C42.668 28.2009 42.2588 27.7889 42.2588 27.2858V26.5238C42.2588 26.017 42.6717 25.6087 43.1759 25.6087Z" />
    <path d="M36.8289 12.5491C36.0104 12.8882 35.6414 13.6757 35.6414 15.3127V19.994H30.723V15.3127C30.723 12.1262 32.1079 10.0663 34.7936 9.47564L30.4673 2.98962H36.1493L40.4756 9.47564C41.3818 9.08189 41.6632 8.20688 41.6632 6.28914V2.98962H46.6107V6.59904C46.6107 9.81471 45.1966 11.9002 42.4561 12.4653L47.4585 19.994H41.7765L36.8289 12.5491Z" />
    <path d="M55.6142 22.393H60.306C60.8139 22.393 61.2232 22.805 61.2232 23.3081C61.2232 23.8149 60.8103 24.2232 60.306 24.2232H55.6142C55.1063 24.2232 54.6971 23.8112 54.6971 23.3081C54.6971 22.8013 55.11 22.393 55.6142 22.393Z" />
    <path d="M51.2477 6.59904H48.646V2.98962H58.0296C63.401 2.98962 66.8759 5.27559 66.8759 11.7324V11.7616C66.8759 18.4445 62.6629 19.9976 58.479 19.9976H56.7835V16.4174H58.479C60.6276 16.4174 61.8151 15.0356 61.8151 11.7653V11.6814C61.8151 7.95895 60.8541 6.60633 58.0259 6.60633H56.2172L54.4084 20.0013H49.4061L51.244 6.60633L51.2477 6.59904Z" />
    <path d="M69.8467 16.4138H71.7979C74.2023 16.4138 75.7845 15.4257 75.7845 12.0132V6.59904H67.2487V2.88252e-08H72.2218V2.98962H80.7868V11.2257C80.7868 16.782 78.9488 19.9976 72.5031 19.9976H69.8467V16.4174V16.4138Z" />
  </g>
  <g transform="translate(110.5, 6.4)" fill="#29256A">
    <path d="M6.07662 8.65896C3.3361 8.77199 2.20337 9.9569 2.20337 12.9465V17.008H0.168071V12.6913C0.168071 9.42095 1.92201 7.50322 5.0864 7.24801L0 0H2.42991L7.49075 7.24801C10.7684 7.16416 11.8427 6.14696 11.8427 2.96046V0H13.9072V3.21567C13.9072 6.51519 11.9852 8.46209 8.48098 8.6298L14.3311 17.008H11.956L6.07662 8.65896Z" />
    <path d="M15.8 3.80013e-07H17.8645V9.67252H15.8V3.80013e-07Z" />
    <path d="M24.8474 1.637H19.4759V3.80013e-07H25.0154C29.0568 3.80013e-07 31.2894 2.05992 31.2894 5.89539V17.008H29.2249V5.89539C29.2249 2.98962 27.6427 1.637 24.8437 1.637H24.8474Z" />
    <path d="M38.4147 15.4002H40.3952C43.5888 15.4002 45.3428 13.5372 45.3428 10.2121V1.637H33.7814V3.80013e-07H47.3781V9.78554C47.3781 14.4377 45.0029 17.0044 40.3696 17.0044H38.4184V15.3966L38.4147 15.4002ZM33.7778 5.58549H35.8679V20.0268H33.7778V5.58549Z" />
  </g>
  <g transform="translate(120.3, 0)" fill="#29256A">
    <path d="M37.0957 29.8926H29.7657C29.1628 29.8926 28.6731 29.404 28.6731 28.8025C28.6731 28.2009 29.1628 27.7123 29.7657 27.7123H37.0957C40.4354 27.7123 43.154 24.6352 43.154 20.8544V9.03813C43.154 5.25736 40.4354 2.18023 37.0957 2.18023H1.09257C0.489658 2.18023 0 1.69169 0 1.09012C0 0.48855 0.489658 0 1.09257 0H37.0957C41.6413 0 45.3355 4.05422 45.3355 9.03813V20.8544C45.3355 25.8383 41.6376 29.8926 37.0957 29.8926Z" />
  </g>
</svg>
