<svg width="191" height="118" viewBox="0 0 191 118" fill="none" xmlns="http://www.w3.org/2000/svg">
<rect width="191" height="118" fill="#1E1E1E"/>
<g id="iPhone 16 - 1">
<rect width="393" height="852" transform="translate(-100.955 -367)" fill="white"/>
<g id="Layer_1" clip-path="url(#clip0_0_1)">
<path id="Vector" d="M93.31 2.20999H165.11C179.15 2.20999 187.89 13.7 187.89 27.74V87.48C187.89 101.52 179.16 113.01 165.11 113.01H147.19" stroke="#29256A" stroke-width="4.42" stroke-miterlimit="10" stroke-linecap="round"/>
<g id="Group">
<g id="Group_2">
<path id="Vector_2" d="M5.62 92.03H9.84C15.03 92.03 18.46 89.89 18.46 82.5V70.77H0V56.47H10.75V62.95H29.26V80.79C29.26 92.83 25.29 99.79 11.36 99.79H5.62V92.03Z" fill="#29256A"/>
<path id="Vector_3" d="M41.22 104.99H51.36C52.46 104.99 53.35 105.88 53.35 106.98C53.35 108.08 52.46 108.97 51.36 108.97H47.97L48.51 113.5C48.51 113.58 48.52 113.66 48.52 113.73V114.44C48.52 115.54 47.63 116.43 46.53 116.43H45.92C44.82 116.43 43.93 115.54 43.93 114.44V113.72C43.93 113.65 43.93 113.58 43.94 113.51L44.42 108.97H41.21C40.11 108.97 39.22 108.08 39.22 106.98C39.22 105.88 40.11 104.99 41.21 104.99H41.22Z" fill="#29256A"/>
<path id="Vector_4" d="M33.67 92.03H43.02C47.72 92.03 52.67 90.32 52.67 81.89V81.71C52.67 74.01 48.76 70.77 43.75 70.77H34.58V62.95H44.66C53.58 62.95 63.85 66.98 63.85 81.04V81.28C63.85 93.56 56.09 99.79 44.24 99.79H33.67V92.03Z" fill="#29256A"/>
<path id="Vector_5" d="M75.07 104.99H85.21C86.31 104.99 87.2 105.88 87.2 106.98C87.2 108.08 86.31 108.97 85.21 108.97H75.07C73.97 108.97 73.08 108.08 73.08 106.98C73.08 105.88 73.97 104.99 75.07 104.99ZM93.34 104.44H94.93C96.03 104.44 96.92 105.33 96.92 106.43V108.14C96.92 109.24 96.03 110.13 94.93 110.13H93.34C92.24 110.13 91.35 109.24 91.35 108.14V106.43C91.35 105.33 92.24 104.44 93.34 104.44ZM93.34 111.95H94.93C96.03 111.95 96.92 112.84 96.92 113.94V115.59C96.92 116.69 96.03 117.58 94.93 117.58H93.34C92.24 117.58 91.35 116.69 91.35 115.59V113.94C91.35 112.84 92.24 111.95 93.34 111.95Z" fill="#29256A"/>
<path id="Vector_6" d="M79.62 83.66C77.85 84.39 77.05 86.1 77.05 89.65V99.79H66.42V89.65C66.42 82.75 69.41 78.28 75.22 77L65.87 62.95H78.15L87.5 77C89.46 76.14 90.07 74.25 90.07 70.1V62.95H100.76V70.77C100.76 77.74 97.7 82.26 91.78 83.48L102.6 99.79H90.32L79.63 83.66H79.62Z" fill="#29256A"/>
<path id="Vector_7" d="M120.23 104.99H130.37C131.47 104.99 132.36 105.88 132.36 106.98C132.36 108.08 131.47 108.97 130.37 108.97H120.23C119.13 108.97 118.24 108.08 118.24 106.98C118.24 105.88 119.13 104.99 120.23 104.99Z" fill="#29256A"/>
<path id="Vector_8" d="M110.78 70.77H105.16V62.95H125.45C137.06 62.95 144.58 67.9 144.58 81.89V81.95C144.58 96.43 135.48 99.79 126.43 99.79H122.76V92.03H126.43C131.07 92.03 133.64 89.04 133.64 81.95V81.77C133.64 73.7 131.56 70.77 125.45 70.77H121.54L117.63 99.79H106.81L110.78 70.77Z" fill="#29256A"/>
<path id="Vector_9" d="M150.99 92.03H155.21C160.4 92.03 163.83 89.89 163.83 82.5V70.77H145.38V56.47H156.13V62.95H174.64V80.79C174.64 92.83 170.67 99.79 156.74 99.79H151V92.03H150.99Z" fill="#29256A"/>
</g>
<g id="Group_3">
<path id="Vector_10" d="M75.47 34.28C69.54 34.52 67.1 37.09 67.1 43.57V52.37H62.7V43.02C62.7 35.93 66.49 31.78 73.33 31.23L62.33 15.53H67.58L78.52 31.23C85.61 31.05 87.93 28.85 87.93 21.94V15.52H92.39V22.49C92.39 29.64 88.23 33.86 80.66 34.22L93.31 52.37H88.18L75.47 34.28Z" fill="#29256A"/>
<path id="Vector_11" d="M96.49 15.52H100.95V36.48H96.49V15.52Z" fill="#29256A"/>
<path id="Vector_12" d="M116.04 19.06H104.43V15.52H116.41C125.15 15.52 129.97 19.98 129.97 28.29V52.36H125.51V28.29C125.51 22 122.09 19.06 116.04 19.06Z" fill="#29256A"/>
<path id="Vector_13" d="M145.37 48.88H149.65C156.55 48.88 160.34 44.85 160.34 37.64V19.06H135.35V15.52H164.74V36.72C164.74 46.8 159.61 52.36 149.59 52.36H145.37V48.88ZM135.35 27.62H139.87V58.91H135.35V27.62Z" fill="#29256A"/>
</g>
</g>
<path id="Vector_14" d="M0.98 10.97H11.24C11.79 10.97 12.23 11.42 12.23 11.96V22.21C12.23 22.76 11.78 23.2 11.24 23.2H0.99C0.44 23.2 0 22.75 0 22.21V11.95C0 11.41 0.44 10.97 0.98 10.97Z" fill="#43AA49"/>
<path id="Vector_15" d="M15.51 10.97H25.77C26.32 10.97 26.76 11.42 26.76 11.96V22.21C26.76 22.76 26.31 23.2 25.77 23.2H15.52C14.97 23.2 14.53 22.75 14.53 22.21V11.95C14.53 11.41 14.97 10.97 15.51 10.97Z" fill="#43AA49"/>
<path id="Vector_16" d="M2.05 25.55H51.44C52.59 25.55 53.52 26.48 53.52 27.63V35.71C53.52 36.86 52.59 37.79 51.44 37.79H2.08C0.93 37.79 0 36.86 0 35.71V27.61C0 26.48 0.92 25.56 2.05 25.56V25.55Z" fill="#F5851F"/>
<path id="Vector_17" d="M21.01 40.13H51.86C52.78 40.13 53.52 40.87 53.52 41.79V50.71C53.52 51.63 52.78 52.37 51.86 52.37H21.03C20.11 52.37 19.37 51.63 19.37 50.71V41.77C19.37 40.86 20.11 40.13 21.01 40.13Z" fill="#EA2427"/>
</g>
</g>
<defs>
<clipPath id="clip0_0_1">
<rect width="190.09" height="117.57" fill="white"/>
</clipPath>
</defs>
</svg>
